<?xml version="1.0" encoding="UTF-8" standalone="no"?>
<svg width="51px" height="33px" viewBox="0 0 51 33" version="1.1" xmlns="http://www.w3.org/2000/svg" xmlns:xlink="http://www.w3.org/1999/xlink" xmlns:sketch="http://www.bohemiancoding.com/sketch/ns">
    <!-- Generator: Sketch 3.0.4 (8054) - http://www.bohemiancoding.com/sketch -->
    <title>Oval 29</title>
    <desc>Created with Sketch.</desc>
    <defs></defs>
    <g id="Landing-(home)" stroke="none" stroke-width="1" fill="none" fill-rule="evenodd" sketch:type="MSPage">
        <g id="Desktop-HD->-Home" sketch:type="MSArtboardGroup" transform="translate(-40.000000, -44.000000)" fill="#FFFFFF">
            <g id="Nav" sketch:type="MSLayerGroup" transform="translate(40.000000, 40.000000)">
                <g id="Oval-29-+-fasterize-8" transform="translate(0.000000, 1.000000)" sketch:type="MSShapeGroup">
                    <path d="M10.5720677,30 C9.75775886,30 9.09836066,29.3284271 9.09836066,28.5 C9.09836066,27.6732586 9.75816178,27 10.5720677,27 L20.3106193,27.0000017 C19.8327544,26.0496224 19.4428738,25.0459206 19.1518991,24 L4.4767369,24 C3.66062926,24 3,23.3284271 3,22.5 C3,21.6732586 3.66115763,21 4.4767369,21 L23.1656372,21 C23.9795431,21 24.6393443,20.3267414 24.6393443,19.5 C24.6393443,18.6715729 23.9799461,18 23.1656372,18 L7.62128906,18 C6.80903287,18 6.14754098,17.3284271 6.14754098,16.5 C6.14754098,15.6732586 6.80736047,15 7.62128906,15 L19.1518991,15 C19.4428737,13.95408 19.832754,12.9503788 20.3106185,12 L12.5408718,12 C11.7269656,12 11.0655738,11.3284271 11.0655738,10.5 C11.0655738,9.67325856 11.7260872,9 12.5408718,9 L30.641047,9 C31.454953,9 32.1147541,8.32674144 32.1147541,7.5 C32.1147541,6.67157288 31.4553559,6 30.641047,6 L26.3100727,6 C25.4964974,6 24.8360656,5.32842712 24.8360656,4.5 C24.8360656,3.67325856 25.4960011,3 26.3100727,3 L34.7704918,3 C43.7338017,3 51,10.3873016 51,19.5 C51,28.6126984 43.7338017,36 34.7704918,36 L23.1622084,36 C22.3480648,36 21.6885246,35.3284271 21.6885246,34.5 C21.6885246,33.6732586 22.3483153,33 23.1622084,33 L25.9165265,33 C26.7322047,33 27.3934426,32.3267414 27.3934426,31.5 C27.3934426,30.6715729 26.7336044,30 25.9165265,30 L10.5720677,30 Z M16,4.5 C16,5.32842712 16.6231438,6 17.3894577,6 L19.6105423,6 C20.3779186,6 21,5.32674144 21,4.5 C21,3.67157288 20.3768562,3 19.6105423,3 L17.3894577,3 C16.6220814,3 16,3.67325856 16,4.5 Z M1.5,15 C0.671572875,15 0,15.6732586 0,16.5 C0,17.3284271 0.673258558,18 1.5,18 C2.32842712,18 3,17.3267414 3,16.5 C3,15.6715729 2.32674144,15 1.5,15 L1.5,15 Z M16,34.5 C16,35.3284271 16.6732586,36 17.5,36 C18.3284271,36 19,35.3267414 19,34.5 C19,33.6715729 18.3267414,33 17.5,33 C16.6715729,33 16,33.6732586 16,34.5 Z M28,28 L30.9016917,15.6678103 C31.5082706,13.0898499 34.1452509,11 36.794973,11 L42,11 L41.4357055,13.2571779 C41.195072,14.2197121 40.1908133,15.0000002 39.1998022,15.0000002 L35.5972385,15.0000001 C35.2673928,15.0000001 34.9343872,15.2624513 34.8524466,15.590214 L34,19.0000006 L38,19.0000006 L37.4357055,21.2571785 C37.195072,22.2197126 36.1905403,23.0000007 35.1989259,23.0000007 L33.5902138,23.0000007 C33.2642477,23.0000007 32.9462357,23.2688224 32.8813599,23.593201 L32.5874883,25.062559 C32.2630275,26.6848629 30.6569304,28 29.0093689,28 L28,28 Z" id="Oval-29"></path>
                </g>
            </g>
        </g>
    </g>
</svg>