<svg xmlns="http://www.w3.org/2000/svg" width="850.3" height="464.2" class="diagram" viewBox="0 0 840.3 444.2" xmlns:xlink="http://www.w3.org/1999/xlink"><path fill="#010101" d="M97.2 45H20.25C9.15 45 0 54.15 0 65.25V223.2c0 11.1 9.15 20.25 20.25 20.25H97.2c11.1 0 20.25-9.15 20.25-20.25V65.25c0-11.1-9.15-20.25-20.25-20.25zM58.05 232.65c-5.4 0-10.05-4.5-10.05-10.05 0-5.4 4.5-10.05 10.05-10.05 5.7 0 10.05 4.5 10.05 10.05s-4.5 10.05-10.05 10.05zm43.2-27.75H16.2V71.25h85.05V204.9zm549.9-89.4H467.1c-5.1 0-9.3 4.2-9.3 9.3v40.35c0 5.1 4.2 9.3 9.3 9.3h184.2c5.1 0 9.3-4.2 9.3-9.3V124.8c-.15-5.1-4.2-9.3-9.45-9.3zm-56.7 38.4H478.5v-18h115.95v18zm41.7-.6c-4.65 0-8.4-3.75-8.4-8.4s3.75-8.4 8.4-8.4 8.4 3.75 8.4 8.4-3.75 8.4-8.4 8.4zm15 29.7H467.1c-5.1 0-9.3 4.2-9.3 9.3v40.35c0 5.1 4.2 9.3 9.3 9.3h184.2c5.1 0 9.3-4.2 9.3-9.3V192.3c-.15-5.1-4.2-9.3-9.45-9.3zm-56.7 38.4H478.5v-18h115.95v18zm41.7-.6c-4.65 0-8.4-3.75-8.4-8.4s3.75-8.4 8.4-8.4 8.4 3.75 8.4 8.4-3.75 8.4-8.4 8.4zm15-174.3H467.1c-5.1 0-9.3 4.2-9.3 9.3v40.35c0 5.1 4.2 9.3 9.3 9.3h184.2c5.1 0 9.3-4.2 9.3-9.3V55.8c-.15-5.1-4.2-9.3-9.45-9.3zm-56.7 38.4H478.5v-18h115.95v18zm41.7-.6c-4.65 0-8.4-3.75-8.4-8.4s3.75-8.4 8.4-8.4 8.4 3.75 8.4 8.4-3.75 8.4-8.4 8.4z"/><text x="200" y="15" font-size="20">HTML request</text><g id="a" stroke="#CE561E" stroke-width="4"><path d="M150 20h260M390 30l22-10M390 10l22 10"/></g><text x="180" y="115" font-size="20" transform="translate(0 120)">14KB HTML chunk</text><g id="b" stroke="#CE561E" stroke-width="4"><path d="M150 240h260M148 240l22 10M148 240l22-10"/></g><text x="240" y="150" font-size="20" transform="translate(0 120)">Acks</text><text x="200" y="180" font-size="20" transform="translate(0 120)">28KB HTML chunk</text><g id="c" stroke="#CE561E" stroke-width="4" transform="translate(0 120) translate(150 50)"><use y="105" xlink:href="#a"/><use y="135" xlink:href="#b"/></g><text x="240" y="210" font-size="20" transform="translate(0 120)">Acks</text><text x="200" y="240" font-size="20" transform="translate(0 120)">56KB HTML chunk</text><use xlink:href="#c" transform="translate(0 120) translate(150 110)"/><text x="210" y="270" font-size="20" transform="translate(0 120)">Acks + requests</text><text x="200" y="300" font-size="20" transform="translate(0 120)">CSS and JS</text><use xlink:href="#c" transform="translate(0 120) translate(150 170)"/><ellipse cx="405" cy="215" fill="#ff69b4" rx="70" ry="30"/><text x="340" y="225" font-size="25">Got HTML!!</text></svg>