<svg xmlns="http://www.w3.org/2000/svg" viewBox="0 0 342.68 161.938"><path fill="none" stroke="#000" d="M100.1 43.5v110.1" stroke-linecap="round" stroke-linejoin="round"/><path d="M97.08 152.73l3 5.18 3-5.17z"/><path fill="none" stroke="#000" d="M240.1 43.5v110.1" stroke-linecap="round" stroke-linejoin="round"/><path d="M237.08 152.73l3 5.18 3-5.17z"/><path fill="#ccc" d="M101.77 56.48v1.3L80.63 45.7v-1.3z"/><path fill="#808080" d="M101.77 56.48l14.73-8.38v1.3l-14.73 8.4z"/><path fill="#fff" d="M80.63 44.37l14.7-8.43L116.5 48.1l-14.73 8.38z"/><path fill="#999" d="M118.55 29.1l1-.57-2.07 18.96-1 .56zM103.6 53.2v.25L85.73 43.2v-.24z"/><path fill="#b3b3b3" d="M103.6 53.2l10.13-5.76v.25l-10.13 5.75z"/><path fill="#e6e6e6" d="M85.73 42.96l10.1-5.8 17.9 10.28-10.13 5.76zm2.57 5.48l2.9-1.67 5.14 2.95-2.9 1.66zm30.25-19.35l-2.06 18.96-21.15-12.12 2.06-18.96z"/><path fill="#0071bc" d="M115.65 46.6L96.2 35.45l2.05-17.02 19.46 11.15-2.05 17.02z"/><path fill="#b3b3b3" d="M97.4 16.98l.98-.6 21.16 12.15-1 .56z"/><path fill="none" stroke="#000" d="M117.48 47.5l2.06-18.97-21.16-12.16-.97.6-2.05 18.97-14.72 8.43v1.3l21.14 12.12 14.73-8.4v-1.34z" stroke-linecap="round" stroke-linejoin="round"/><path fill="#b3b3b3" d="M236.7 31.72v29.23l-11.47-7.06V24.64z"/><path fill="#333" d="M234.6 32.64v3.5l-8.2-5.05v-3.5zm0 11.77v3.5l-8.2-5.05v-3.48z"/><path fill="#e6e6e6" d="M234.6 40.02v1L226.4 36v-1.02z"/><path fill="#333" d="M234.6 49.36v3.5l-8.2-5.05v-3.48zm0 4.95v3.5l-8.2-5.03v-3.5z"/><path fill="#808080" d="M236.7 31.73l18.2-11.48V49.5l-18.2 11.47z"/><path fill="#999" d="M225.25 24.67l18.23-11.48 11.46 7.05-18.2 11.48z"/><path fill="#009245" d="M226.67 31.57c.18.1.32.36.32.58 0 .2-.15.3-.33.2a.74.74 0 0 1-.3-.6c0-.2.13-.3.3-.18"/><path fill="#c1272d" d="M227.44 32.04c.18.1.32.37.32.6 0 .2-.15.3-.32.18-.18-.1-.32-.37-.32-.58 0-.22.14-.3.32-.2"/><path fill="#009245" d="M228.2 32.5a.76.76 0 0 1 .32.6c0 .2-.14.3-.3.18-.2-.1-.33-.37-.33-.58 0-.22.13-.3.3-.2"/><path fill="#c1272d" d="M228.97 32.98c.18.1.32.37.32.58 0 .2-.16.3-.33.2-.17-.1-.32-.38-.32-.6 0-.2.15-.3.32-.18m.78.47a.74.74 0 0 1 .3.6c0 .2-.13.3-.3.18a.76.76 0 0 1-.32-.58c0-.2.14-.3.32-.2"/><path fill="#009245" d="M230.52 33.93c.17.1.3.37.3.6 0 .2-.13.3-.3.18-.18-.1-.32-.36-.32-.58 0-.2.14-.3.32-.2m.76.47a.75.75 0 0 1 .32.58c0 .22-.15.3-.32.2-.17-.12-.3-.38-.3-.6 0-.2.13-.3.3-.2m.77.5c.17.1.3.35.3.57s-.13.3-.3.2a.74.74 0 0 1-.32-.6c0-.2.15-.3.32-.18"/><path fill="#c1272d" d="M226.67 32.7c.18.1.32.37.32.6 0 .2-.15.28-.33.18a.75.75 0 0 1-.3-.6c0-.2.13-.3.3-.18m.77.48c.18.1.32.37.32.58 0 .22-.15.3-.32.2-.18-.1-.32-.38-.32-.6 0-.2.14-.3.32-.18"/><path fill="#009245" d="M228.2 33.64c.18.1.32.38.32.58 0 .22-.14.3-.3.2-.2-.1-.33-.37-.33-.6 0-.2.13-.3.3-.18"/><path fill="#c1272d" d="M228.97 34.1c.18.12.32.38.32.6 0 .2-.16.3-.33.2a.77.77 0 0 1-.32-.6c0-.2.15-.3.32-.2"/><path fill="#009245" d="M229.75 34.6a.74.74 0 0 1 .3.57c0 .22-.13.3-.3.2-.18-.1-.32-.37-.32-.6 0-.2.14-.3.32-.18"/><path fill="#c1272d" d="M230.52 35.06c.17.1.3.38.3.6 0 .2-.13.3-.3.18a.76.76 0 0 1-.32-.58c0-.2.14-.3.32-.2"/><path fill="#009245" d="M231.28 35.53a.76.76 0 0 1 .32.58c0 .23-.15.32-.32.2-.17-.1-.3-.36-.3-.58 0-.2.13-.3.3-.2"/><path fill="#c1272d" d="M232.05 36c.17.1.3.37.3.6s-.13.28-.3.18a.76.76 0 0 1-.32-.58c0-.22.15-.3.32-.2"/><path fill="#009245" d="M232.64 40.88c.18.1.32.37.32.6 0 .2-.14.3-.32.18a.76.76 0 0 1-.3-.6c0-.2.13-.3.3-.18m.77.46a.76.76 0 0 1 .33.6c0 .2-.15.3-.32.18a.74.74 0 0 1-.3-.58c0-.22.14-.3.3-.2"/><path fill="#c1272d" d="M234.18 41.82c.17.1.3.36.3.58 0 .2-.13.3-.3.2a.74.74 0 0 1-.32-.6c0-.2.14-.3.32-.18m-1.54.2c.18.1.32.37.32.58 0 .22-.14.3-.32.2-.17-.1-.3-.38-.3-.6 0-.2.13-.3.3-.18m.77.46a.77.77 0 0 1 .33.58c0 .22-.15.3-.32.2-.17-.1-.3-.37-.3-.6 0-.2.14-.3.3-.18"/><path fill="#009245" d="M234.18 42.95c.17.1.3.37.3.6 0 .2-.13.3-.3.18a.73.73 0 0 1-.32-.58c0-.22.14-.3.32-.2"/><path fill="none" stroke="#000" d="M254.94 20.25l-11.46-7.06-18.22 11.47-.03-.02V53.9l11.48 7.05v.02l18.2-11.48V20.26z" stroke-linecap="round" stroke-linejoin="round"/><path fill="none" stroke="#000" d="M66.38 73.44h173.7m-140 20h176.8m-176.8 40H240.1" stroke-dasharray="1 1"/><path fill="#b2d4eb" fill-rule="evenodd" d="M73.3 82.78c0 1.98-1.63 3.6-3.6 3.6H6.97a3.6 3.6 0 0 1-3.6-3.6v-18.7c0-1.97 1.62-3.6 3.6-3.6h62.7c2 0 3.6 1.63 3.6 3.6v18.7z" clip-rule="evenodd"/><path fill="none" stroke="#000" d="M73.3 82.78c0 1.98-1.63 3.6-3.6 3.6H6.97a3.6 3.6 0 0 1-3.6-3.6v-18.7c0-1.97 1.62-3.6 3.6-3.6h62.7c2 0 3.6 1.63 3.6 3.6v18.7z" stroke-linecap="round" stroke-linejoin="round"/><path fill="#b2d4eb" fill-rule="evenodd" d="M336.3 102.78c0 1.98-1.64 3.6-3.62 3.6H270c-1.98 0-3.6-1.62-3.6-3.6v-18.7c0-1.97 1.62-3.6 3.6-3.6h62.7c1.98 0 3.6 1.63 3.6 3.6v18.7z" clip-rule="evenodd"/><path fill="none" stroke="#000" d="M336.3 102.78c0 1.98-1.64 3.6-3.62 3.6H270c-1.98 0-3.6-1.62-3.6-3.6v-18.7c0-1.97 1.62-3.6 3.6-3.6h62.7c1.98 0 3.6 1.63 3.6 3.6v18.7z" stroke-linecap="round" stroke-linejoin="round"/><path fill="none" stroke="#000" d="M66.38 113.44h173.7" stroke-dasharray="1 1"/><path fill="#b2d4eb" fill-rule="evenodd" d="M73.3 122.78c0 1.98-1.63 3.6-3.6 3.6H6.97a3.6 3.6 0 0 1-3.6-3.6v-18.7c0-1.96 1.62-3.6 3.6-3.6h62.7c2 0 3.6 1.63 3.6 3.6v18.7z" clip-rule="evenodd"/><path fill="none" stroke="#000" d="M73.3 122.78c0 1.98-1.63 3.6-3.6 3.6H6.97a3.6 3.6 0 0 1-3.6-3.6v-18.7c0-1.96 1.62-3.6 3.6-3.6h62.7c2 0 3.6 1.63 3.6 3.6v18.7z" stroke-linecap="round" stroke-linejoin="round"/><path fill="#fddfbb" fill-rule="evenodd" d="M73.5 139.84c0 1.98-1.6 3.6-3.6 3.6H7.2a3.6 3.6 0 0 1-3.6-3.6v-9.86c0-1.98 1.62-3.6 3.6-3.6h62.7c2 0 3.6 1.62 3.6 3.6v9.86z" clip-rule="evenodd"/><path fill="none" stroke="#000" d="M73.5 139.84c0 1.98-1.6 3.6-3.6 3.6H7.2a3.6 3.6 0 0 1-3.6-3.6v-9.86c0-1.98 1.62-3.6 3.6-3.6h62.7c2 0 3.6 1.62 3.6 3.6v9.86z" stroke-linecap="round" stroke-linejoin="round"/><path d="M245.72 73.28c0 1.9-.6 2.67-1.35 2.67-.8 0-1.3-.96-1.3-2.66 0-1.76.52-2.68 1.37-2.68.84 0 1.28 1 1.28 2.66zm-2.03 0c0 1.26.2 2.14.7 2.14.5 0 .7-.9.7-2.13s-.2-2.15-.7-2.15-.7.9-.7 2.13zm3.92-.27c0-.44-.02-.67-.03-1h.53l.03.5c.18-.32.48-.55.9-.55.35 0 .65.18.8.6.1-.2.25-.35.4-.45a.93.93 0 0 1 .53-.15c.5 0 .92.4.92 1.37v2.56h-.6v-2.42c0-.5-.08-1-.56-1-.25 0-.47.23-.56.6a2.24 2.24 0 0 0-.03.34v2.48h-.6v-2.53c0-.43-.08-.88-.54-.88-.25 0-.5.22-.57.62a2.2 2.2 0 0 0-.03.33v2.45h-.6V73zm4.86 2.24c.14.1.37.2.62.2.35 0 .57-.2.57-.56 0-.3-.1-.5-.5-.76-.5-.32-.77-.65-.77-1.1a1.04 1.04 0 0 1 1.06-1.07c.3 0 .54.1.7.2l-.17.46a.9.9 0 0 0-.52-.16.47.47 0 0 0-.5.5c0 .26.1.4.47.66.45.3.8.64.8 1.18 0 .77-.52 1.15-1.16 1.15-.3 0-.6-.1-.78-.22l.16-.46zM82.42 95.88v-.4l.44-.6c.62-.85 1.35-1.83 1.35-2.8 0-.58-.24-.93-.73-.93-.38 0-.62.2-.75.3l-.15-.48a1.62 1.62 0 0 1 1-.35c.87 0 1.25.64 1.25 1.42 0 .98-.64 1.92-1.28 2.8l-.35.48v.02h1.72v.54h-2.5zm3.05-1.27c0-.72.43-1.18.86-1.47v-.02c-.44-.3-.7-.74-.7-1.18 0-.8.58-1.3 1.22-1.3.75 0 1.1.63 1.1 1.23 0 .45-.2.9-.68 1.22v.02c.48.3.83.78.83 1.4 0 .82-.53 1.45-1.33 1.45-.87 0-1.3-.7-1.3-1.34zm2.02-.05c0-.6-.35-.94-.75-1.2a1.4 1.4 0 0 0-.67 1.16c0 .6.26 1 .7 1 .4 0 .7-.3.7-.95zm-1.27-2.67c0 .52.32.8.64 1 .3-.23.52-.57.52-.96 0-.5-.22-.84-.6-.84-.34 0-.57.33-.57.8zM90 93c0-.44 0-.67-.02-1h.54l.03.5h.02c.16-.32.46-.55.87-.55.36 0 .66.18.8.6h.02c.1-.2.24-.35.4-.45a.93.93 0 0 1 .52-.15c.52 0 .93.38.93 1.37v2.56h-.6v-2.42c0-.5-.07-1-.54-1-.26 0-.48.23-.57.6a2.37 2.37 0 0 0-.03.34v2.48h-.6v-2.53c0-.43-.1-.88-.55-.88-.24 0-.5.22-.57.62a2.2 2.2 0 0 0-.03.33v2.45h-.6V93zm4.87 2.24c.14.1.38.2.62.2.35 0 .56-.2.56-.56 0-.3-.1-.5-.5-.76-.5-.32-.77-.65-.77-1.1 0-.62.45-1.07 1.05-1.07.3 0 .54.1.7.2l-.17.46a.9.9 0 0 0-.5-.16.47.47 0 0 0-.5.5c0 .26.08.4.46.66.45.3.8.64.8 1.18 0 .77-.52 1.15-1.16 1.15-.28 0-.6-.1-.76-.22l.15-.46zM82.4 134.6c0-.72.42-1.18.85-1.47v-.02c-.44-.3-.7-.74-.7-1.18 0-.8.58-1.3 1.22-1.3.75 0 1.1.63 1.1 1.23 0 .45-.2.9-.68 1.22v.02c.47.3.82.8.82 1.4 0 .82-.53 1.45-1.33 1.45-.88 0-1.3-.7-1.3-1.34zm2-.05c0-.6-.33-.94-.73-1.2a1.4 1.4 0 0 0-.67 1.16c0 .6.26 1 .7 1 .4 0 .7-.3.7-.95zm-1.25-2.67c0 .53.32.8.64 1 .3-.23.5-.57.5-.96 0-.5-.2-.84-.57-.84-.35 0-.58.33-.58.8zm3.97 4v-1.43H85.4v-.4l1.68-3.36h.6v3.25h.57v.5h-.57v1.43h-.56zm0-1.93v-1.47c0-.36.02-.68.05-1.03h-.04c-.17.42-.28.67-.44 1l-.73 1.48v.02h1.15zm2.9-.94c0-.44-.03-.67-.04-1h.54l.03.5h.02c.16-.32.46-.55.87-.55.36 0 .66.18.8.6h.02c.1-.2.24-.35.4-.45a.93.93 0 0 1 .52-.15c.52 0 .93.4.93 1.37v2.56h-.6v-2.42c0-.5-.07-1-.54-1-.26 0-.48.23-.57.58a2.37 2.37 0 0 0-.03.36v2.48h-.6v-2.53c0-.43-.1-.88-.55-.88-.24 0-.5.22-.57.62a2.2 2.2 0 0 0-.03.33v2.45h-.6V133zm4.85 2.24c.14.1.38.2.62.2.35 0 .56-.2.56-.56 0-.3-.1-.5-.5-.76-.5-.32-.77-.65-.77-1.1 0-.62.45-1.07 1.05-1.07.3 0 .54.1.7.2l-.17.46a.9.9 0 0 0-.5-.16.47.47 0 0 0-.5.5c0 .26.08.4.46.66.45.3.8.64.8 1.18 0 .77-.52 1.15-1.16 1.15-.28 0-.6-.1-.76-.22l.15-.46zM32.9 70.48c.24.15.64.27.98.27.7 0 1.12-.46 1.12-1.14 0-.6-.36-1-.9-1.38-.52-.37-1.26-1-1.26-1.87 0-1.02.7-1.77 1.78-1.77.42 0 .8.13.95.25l-.2.66a1.4 1.4 0 0 0-.8-.24c-.65 0-.96.5-.96.96 0 .67.36.93 1 1.4.8.55 1.17 1.17 1.17 1.92 0 1.16-.82 1.9-1.9 1.9-.45 0-.94-.16-1.13-.3l.17-.66zm4.75.9V68.5l-1.48-3.88h.8l.6 1.68c.18.47.36 1 .5 1.52h.03c.14-.52.3-1.03.5-1.55l.56-1.66h.8l-1.54 3.85v2.87h-.77zm2.96 0v-6.74h.74l1.23 3.15c.28.72.63 1.6.86 2.34h.02c-.06-1.06-.1-1.92-.1-3.1v-2.4h.7v6.73h-.73l-1.27-3.23c-.27-.68-.56-1.45-.8-2.3h-.02c.06.9.08 1.77.08 3.2v2.33h-.7zm-14.8 5.16l.26 1.03c.07.34.12.6.18.85h.02c.17-.3.32-.57.47-.8l.63-1.08h.78l-1.62 2.4.68 2.43h-.75l-.25-1.07c-.06-.28-.12-.5-.2-.9-.16.3-.3.55-.48.87l-.65 1.1h-.78l1.63-2.46-.68-2.37h.75zM28.24 78v-.54h5.15V78h-5.16zm0 1.9v-.55h5.15v.55h-5.16zm5.5 1.47l.62-3.25c.12-.64.18-1.22.2-1.58h.64c0 .26-.03.52-.08.9h.03c.3-.6.72-.98 1.2-.98.06 0 .1 0 .14 0l-.15.77c-.02 0-.06 0-.1 0-.63 0-1.17.88-1.3 1.6l-.5 2.54h-.7zm4.53 0c0-.27.04-.54.07-.92h-.02c-.48.82-.9 1-1.27 1-.56 0-.9-.5-.9-1.36 0-1.48.78-3.64 2.65-3.64.34 0 .7.06.9.15l-.57 2.78c-.13.65-.22 1.45-.2 2h-.66zm.6-4.3c-.08-.02-.18-.02-.3-.02-1.07 0-1.67 1.76-1.7 2.82 0 .6.1.96.45.96.5 0 1-.96 1.2-1.92l.36-1.83zm.95 4.3l.6-3.18c.13-.7.2-1.28.25-1.66h.63l-.08.77h.02c.4-.58.8-.84 1.3-.84.6 0 .83.47.83.97 0 .28-.04.5-.1.8l-.58 3.14h-.73l.6-3.14c.03-.22.06-.42.06-.67 0-.3-.12-.5-.42-.5-.44 0-.98.7-1.16 1.62l-.5 2.7h-.72zm8-6.9l-1 5.2c-.1.53-.2 1.24-.23 1.7h-.63l.07-.76h-.02c-.25.5-.7.85-1.17.85-.6 0-.97-.57-.97-1.45 0-1.65.87-3.54 2.3-3.54.18 0 .38.08.5.18l.4-2.18h.73zm-1.28 2.8a.52.52 0 0 0-.45-.23c-.94 0-1.48 1.83-1.48 2.82 0 .57.13.97.53.97.35 0 .82-.44 1-1.4l.4-2.17zm4.18-2.8c-1.2 1.33-2 3.24-2 5.2 0 1.16.1 2.1.42 2.9h-.57c-.35-.8-.5-1.85-.5-2.85 0-2.1.9-4.03 2-5.26h.65zm-1.26 8.1c1.2-1.34 2-3.27 2-5.23 0-1.16-.1-2.08-.4-2.88h.57c.34.8.47 1.84.47 2.83 0 2.1-.9 4.04-1.98 5.27h-.66zM89.8 7.47c.24.16.64.28.98.28.7 0 1.1-.46 1.1-1.14 0-.6-.35-1-.88-1.4-.52-.36-1.26-1-1.26-1.86 0-1.02.7-1.77 1.77-1.77.43 0 .8.13.96.25l-.2.66a1.4 1.4 0 0 0-.8-.23c-.65 0-.95.5-.95.96 0 .68.36.94 1 1.4.8.57 1.16 1.2 1.16 1.94 0 1.16-.82 1.9-1.9 1.9-.45 0-.94-.16-1.13-.3l.18-.66zm4.32-1.45c0 1.48.58 1.8 1.14 1.8.33 0 .6-.08.8-.2l.12.58c-.27.15-.68.23-1.06.23-1.16 0-1.76-.95-1.76-2.43 0-1.57.66-2.55 1.63-2.55.98 0 1.37 1.04 1.37 2.14 0 .17 0 .3 0 .42H94.1zm1.5-.57c.03-.97-.34-1.4-.7-1.4-.5 0-.76.74-.8 1.4h1.5zm1.6-.67c0-.57-.04-.86-.05-1.25h.67l.04.58h.02c.2-.38.6-.65 1.1-.65.67 0 1.17.5 1.17 1.67v3.25h-.77V5.25c0-.57-.1-1.15-.67-1.15-.32 0-.63.27-.72.8 0 .1-.02.26-.02.42v3.05h-.77v-3.6zm6.94-3.33V7.2c0 .34.03.9.04 1.17h-.66l-.05-.6h-.04c-.16.34-.5.68-1 .68-.83 0-1.42-.9-1.42-2.48 0-1.72.7-2.52 1.46-2.52.35 0 .7.17.88.58h.02V1.45h.76zm-.76 3.92c0-.1 0-.2 0-.32-.06-.5-.36-.94-.73-.94-.64 0-.86.9-.86 1.87 0 1.02.27 1.84.83 1.84.24 0 .57-.12.74-.82.02-.1.03-.2.03-.32v-1.3zm2.38.65c0 1.48.6 1.8 1.15 1.8.33 0 .6-.08.8-.2l.12.58c-.27.15-.68.23-1.06.23-1.17 0-1.77-.95-1.77-2.43 0-1.57.66-2.55 1.63-2.55 1 0 1.38 1.04 1.38 2.14 0 .17 0 .3 0 .42h-2.26zm1.52-.57c.02-.97-.35-1.4-.72-1.4-.5 0-.76.74-.8 1.4h1.52zm1.56-.67c0-.4-.03-.9-.04-1.25h.7l.03.76h.02c.16-.47.57-.85 1.02-.85.05 0 .1 0 .15 0v.8c-.05 0-.1 0-.16 0-.5 0-.86.44-.94 1-.02.13-.03.28-.03.44v2.67h-.77v-3.6zm121.8-3.05c.32-.1.72-.13 1.1-.13.67 0 1.17.14 1.52.48.33.34.47.8.47 1.32 0 .86-.4 1.42-1.08 1.73v.02c.5.15.76.63.9 1.5.16.94.3 1.5.4 1.72h-.8c-.1-.2-.22-.84-.35-1.67-.15-.92-.44-1.27-1.1-1.27h-.3v2.94h-.77V1.73zm.76 3.1h.32c.74 0 1.23-.53 1.23-1.34 0-.8-.32-1.27-1.15-1.28-.15 0-.3 0-.4.04v2.58zm3.8 1.2c0 1.47.6 1.8 1.15 1.8.33 0 .6-.1.8-.2l.12.57c-.28.15-.7.23-1.07.23-1.16 0-1.76-.95-1.76-2.43 0-1.57.66-2.55 1.63-2.55 1 0 1.38 1.04 1.38 2.14 0 .17 0 .3 0 .42h-2.26zm1.52-.58c.02-.97-.35-1.4-.72-1.4-.5 0-.76.74-.8 1.4h1.52zm3.93 2.8c-.17.1-.46.18-.8.18-1.06 0-1.77-.85-1.77-2.45 0-1.4.7-2.52 1.9-2.52.27 0 .55.07.7.15l-.16.64a1.26 1.26 0 0 0-.55-.13c-.78 0-1.13.93-1.13 1.88 0 1.13.43 1.8 1.14 1.8.22 0 .4-.04.57-.12l.1.6zm1.14-2.23c.02 1.48.6 1.8 1.16 1.8.33 0 .6-.08.8-.2l.12.58c-.27.15-.68.23-1.06.23-1.16 0-1.76-.95-1.76-2.43 0-1.57.66-2.55 1.63-2.55.98 0 1.37 1.04 1.37 2.14 0 .17 0 .3 0 .42h-2.26zm1.53-.57c.02-.97-.35-1.4-.72-1.4-.5 0-.75.74-.78 1.4h1.5zm2.4-3.17c0 .3-.18.5-.47.5-.25 0-.44-.2-.44-.5s.2-.5.45-.5c.28 0 .46.2.46.5zm-.83 6.1V3.52h.77v4.84h-.77zm2.23-4.85l.6 2.72c.08.33.16.76.22 1.18h.03c.05-.4.13-.8.2-1.18l.6-2.72h.76l-1.26 4.84h-.7l-1.25-4.84h.8zm3.5 2.5c0 1.47.58 1.8 1.14 1.8.33 0 .6-.1.8-.2l.12.57c-.28.15-.7.23-1.07.23-1.16 0-1.76-.95-1.76-2.43 0-1.57.66-2.55 1.63-2.55 1 0 1.38 1.04 1.38 2.14 0 .17 0 .3 0 .42h-2.26zm1.5-.58c.03-.97-.34-1.4-.7-1.4-.5 0-.77.74-.8 1.4h1.5zm1.57-.67c0-.4-.03-.9-.04-1.25h.7l.03.76c.17-.47.58-.85 1.03-.85.06 0 .1 0 .16 0v.8c-.06 0-.1 0-.17 0-.5 0-.85.44-.93 1-.02.13-.03.28-.03.44v2.67h-.77v-3.6zm35.46 85.7c.23.15.63.27.97.27.7 0 1.12-.46 1.12-1.14 0-.6-.36-1-.9-1.38-.52-.37-1.26-1-1.26-1.87 0-1.02.7-1.77 1.77-1.77.42 0 .8.13.95.25l-.2.66a1.4 1.4 0 0 0-.8-.24c-.65 0-.96.5-.96.96 0 .67.35.93 1 1.4.8.55 1.16 1.17 1.16 1.92 0 1.16-.82 1.9-1.9 1.9-.45 0-.94-.16-1.13-.3l.16-.66zm4.74.9V88.5l-1.48-3.88h.8l.6 1.68c.18.47.36 1 .5 1.52h.03c.14-.52.3-1.03.5-1.55l.56-1.66h.82l-1.55 3.85v2.87h-.77zm2.96 0v-6.74h.73l1.23 3.15c.28.72.63 1.6.86 2.34a50.66 50.66 0 0 1-.08-3.1v-2.4h.7v6.73h-.74l-1.28-3.23c-.27-.68-.56-1.45-.8-2.3h-.02c.06.9.08 1.77.08 3.2v2.33h-.7zm7.03-2.03l-.46 2.02h-.74l1.54-6.73h.85l1.5 6.73h-.77l-.45-2.02h-1.5zm1.38-.62l-.35-1.7c-.1-.48-.2-1.04-.27-1.54h-.04c-.08.5-.18 1.07-.27 1.52l-.35 1.7h1.28zm4.9 2.52c-.22.1-.55.18-.97.18-1.3 0-2.25-1.06-2.25-3.35 0-2.65 1.32-3.5 2.38-3.5.4 0 .7.08.84.17l-.17.65c-.16-.07-.33-.14-.68-.14-.72 0-1.56.7-1.56 2.75 0 2.07.76 2.75 1.58 2.75.3 0 .55-.07.7-.15l.13.65zm.78-6.6h.77v3.18h.02c.15-.28.3-.55.42-.8l1.26-2.4h.85l-1.65 2.88 1.7 3.87h-.84l-1.4-3.25-.37.65v2.6h-.77v-6.73zm-31.7 11.9l.26 1.03c.07.33.12.6.18.84h.02c.17-.3.32-.57.47-.8l.62-1.08h.78l-1.62 2.4.68 2.43h-.75l-.24-1.07c-.06-.28-.12-.5-.2-.9-.16.3-.3.55-.48.87l-.65 1.1h-.78l1.64-2.46-.7-2.37h.76zm5.24-.5v2.38h2.3v.54h-2.3v2.4h-.57v-2.4h-2.3v-.54h2.3v-2.37h.57zm5.1-.4l-1.16.6-.03-.6 1.48-.77h.6l-1.23 6.5h-.7l1.06-5.73zm8.54.9l.16 2.7c.02.43.02.7.05 1.2h.02c.13-.43.27-.8.43-1.23l1-2.68h.74l-1.62 3.92c-.44 1.08-.95 1.98-1.6 2.53-.28.23-.56.4-.74.47l-.3-.6c.22-.1.48-.26.73-.47.3-.25.64-.7.8-1.05.03-.1.04-.17.03-.27l-.43-4.54h.74zm2.64 1.46v-.54h5.15V98h-5.15zm0 1.9v-.55h5.15v.55h-5.15zm5.5 1.47l.6-3.25c.14-.64.2-1.22.23-1.58h.63c0 .26-.02.52-.08.9h.03c.3-.6.72-.98 1.2-.98.06 0 .1 0 .14 0l-.14.77c-.02 0-.06 0-.1 0-.63 0-1.16.88-1.3 1.6l-.48 2.54h-.7zm4.53 0c.02-.27.04-.54.07-.92h-.02c-.48.82-.9 1-1.27 1-.56 0-.9-.5-.9-1.36 0-1.48.78-3.64 2.65-3.64.34 0 .7.06.9.15l-.57 2.78c-.13.65-.22 1.45-.2 2h-.65zm.6-4.3a1.4 1.4 0 0 0-.3-.02c-1.06 0-1.66 1.76-1.7 2.82 0 .6.1.96.45.96.5 0 1-.96 1.2-1.92l.36-1.83zm.96 4.3l.6-3.18c.13-.7.2-1.28.25-1.66h.63l-.08.77h.03c.4-.58.8-.84 1.3-.84.6 0 .82.47.82.97 0 .28-.04.5-.1.8l-.58 3.14h-.72l.6-3.14c.03-.22.06-.42.06-.67 0-.3-.12-.5-.42-.5-.45 0-1 .7-1.17 1.62l-.5 2.7h-.7zm7.98-6.9l-1 5.2c-.1.53-.2 1.24-.2 1.7h-.63l.08-.76h-.03c-.23.5-.7.85-1.15.85-.6 0-.98-.57-.98-1.45 0-1.65.87-3.54 2.28-3.54.2 0 .4.08.5.18l.42-2.18h.72zm-1.27 2.8a.52.52 0 0 0-.45-.23c-.93 0-1.47 1.83-1.47 2.82 0 .57.13.97.53.97.35 0 .82-.44 1-1.4l.4-2.17zm4.18-2.8c-1.2 1.33-2 3.24-2 5.2 0 1.16.1 2.1.42 2.9h-.57c-.35-.8-.48-1.85-.48-2.85 0-2.1.9-4.03 2-5.26h.63zm-1.26 8.1c1.18-1.34 2-3.27 2-5.23 0-1.16-.1-2.08-.42-2.88h.58c.34.8.47 1.84.47 2.83 0 2.1-.9 4.04-1.98 5.27H322zm-76.48 8.66h-1.4l-.22 1.38c.07 0 .12 0 .2 0 .27 0 .7.12.98.4.28.26.44.64.44 1.17 0 1.03-.65 1.78-1.58 1.78-.3 0-.67-.1-.88-.23l.14-.5c.16.1.44.2.73.2.52 0 .98-.4.98-1.18 0-.83-.5-1.17-1.17-1.17-.2 0-.3 0-.4.02l.32-2.4h1.87v.53zm2.96-.1a2.63 2.63 0 0 0-.36.07c-.87.2-1.2 1.07-1.34 1.87h.02c.2-.3.5-.5.88-.5.67 0 1.12.6 1.12 1.6s-.44 1.78-1.28 1.78c-.9 0-1.35-.92-1.35-2.1 0-1.02.26-1.8.67-2.36a2.14 2.14 0 0 1 1.25-.83c.16-.03.3-.04.4-.05v.52zm-.3 3.1c0-.8-.26-1.2-.7-1.2-.24 0-.5.2-.66.58a.85.85 0 0 0-.05.32c0 1.06.34 1.55.75 1.55.36 0 .67-.35.67-1.25zm2.52-1.22c0-.44-.02-.67-.03-1h.54l.04.5c.18-.32.48-.55.88-.55.36 0 .67.18.8.6h.03c.1-.2.24-.35.38-.45a.93.93 0 0 1 .54-.15c.52 0 .93.4.93 1.37v2.56h-.6v-2.42c0-.5-.08-1-.56-1-.25 0-.47.23-.56.6a2.24 2.24 0 0 0-.03.34v2.48h-.6v-2.53c0-.43-.08-.88-.54-.88-.24 0-.5.22-.56.62a2.2 2.2 0 0 0-.03.33v2.45h-.6V113zm4.86 2.24c.13.1.37.2.62.2.35 0 .57-.2.57-.56 0-.3-.1-.5-.5-.76-.5-.32-.77-.65-.77-1.1a1.04 1.04 0 0 1 1.06-1.07c.3 0 .54.1.7.2l-.17.46a.9.9 0 0 0-.5-.16.47.47 0 0 0-.52.5c0 .26.1.4.48.66.45.3.8.64.8 1.18 0 .77-.53 1.15-1.16 1.15-.3 0-.6-.1-.77-.22l.16-.46zM34 109.34l-.44 2.03h-.74l1.54-6.73h.85l1.5 6.73h-.75l-.45-2.02H34zm1.4-.6l-.35-1.72c-.1-.47-.2-1.03-.27-1.53h-.04c-.08.5-.18 1.07-.27 1.52l-.35 1.7h1.28zm4.9 2.5c-.22.12-.55.2-.97.2-1.32 0-2.26-1.07-2.26-3.36 0-2.65 1.32-3.5 2.38-3.5.4 0 .7.08.84.17l-.18.65c-.16-.07-.33-.14-.68-.14-.72 0-1.56.7-1.56 2.75 0 2.07.76 2.75 1.58 2.75.3 0 .55-.07.7-.15l.13.65zm.78-6.6h.77v3.2h.02c.15-.3.3-.56.42-.82l1.25-2.4h.85l-1.65 2.9 1.7 3.85h-.84l-1.37-3.25-.38.65v2.6h-.77v-6.73zm-17.33 11.9l.16 2.7c.03.44.04.72.06 1.2h.02c.13-.42.27-.8.43-1.22l1-2.68h.75l-1.62 3.92c-.44 1.08-.95 1.98-1.6 2.53-.28.23-.56.4-.74.47l-.3-.6c.2-.1.47-.26.72-.47.3-.25.63-.7.78-1.05.04-.1.05-.17.04-.27l-.43-4.54h.75zm5.44-.5v2.4h2.28v.53h-2.3v2.4h-.56v-2.4h-2.3v-.54h2.3v-2.37h.57zm5.1-.4h-.02l-1.14.62-.04-.6 1.47-.78h.6l-1.23 6.5h-.7l1.06-5.73zm8.55.9l.26 1.03c.08.34.13.6.2.85.18-.3.33-.57.48-.8l.62-1.08h.78l-1.6 2.4.67 2.43h-.75l-.25-1.07c-.06-.28-.12-.5-.2-.9-.16.3-.3.55-.48.87l-.65 1.1h-.78l1.64-2.46-.68-2.37h.75zm5.23-.5v2.4h2.3v.53h-2.3v2.4h-.57v-2.4h-2.27v-.54h2.28v-2.37h.58zm5.1-.4l-1.15.62-.04-.6 1.46-.78h.6l-1.23 6.5h-.7l1.06-5.73zm-38.33 20.2l-.45 2h-.74l1.54-6.73h.85l1.5 6.75h-.76l-.46-2.02h-1.5zm1.4-.63l-.36-1.7c-.1-.48-.2-1.04-.28-1.54h-.04c-.08.5-.18 1.1-.27 1.54l-.34 1.7h1.28zm2.04-.68c0-.74-.04-1.17-.05-1.5h.7l.03.6H19c.26-.5.64-.7 1.02-.7.84 0 1.4.9 1.4 2.5 0 1.78-.74 2.5-1.5 2.5-.45 0-.7-.3-.84-.56h-.02v2.4h-.77v-5.24zm.76 1.54c0 .15 0 .3.03.4.14.7.5.82.7.82.64 0 .84-.88.84-1.86 0-1-.24-1.83-.85-1.83-.36 0-.67.42-.72.87-.02.12-.02.23-.02.36v1.23zm3.22-1.54c0-.74-.03-1.17-.04-1.5h.7l.03.6H23c.25-.5.63-.7 1-.7.85 0 1.4.9 1.4 2.5 0 1.78-.73 2.5-1.5 2.5-.44 0-.7-.3-.83-.56h-.02v2.4h-.77v-5.24zm.77 1.54c0 .15 0 .3.03.4.15.7.5.82.7.82.65 0 .85-.88.85-1.86 0-1-.24-1.83-.85-1.83-.35 0-.66.42-.7.87-.03.12-.03.23-.03.36v1.23zm3.23-5.13h.77v6.9h-.77v-6.9zm2.74.83c0 .3-.18.5-.47.5-.25 0-.44-.2-.44-.5s.2-.5.46-.5c.28 0 .46.2.46.5zm-.83 6.08V133h.76v4.84h-.77zm4.2-.12c-.18.1-.47.18-.8.18-1.07 0-1.78-.85-1.78-2.44 0-1.4.7-2.52 1.9-2.52.27 0 .55.07.7.15l-.16.62c-.1-.05-.3-.13-.55-.13-.76 0-1.1.9-1.1 1.85 0 1.13.42 1.8 1.13 1.8.2 0 .38-.04.56-.12l.1.6zm2.6.12l-.06-.5h-.03c-.2.36-.54.58-.95.58-.65 0-1.15-.55-1.15-1.37 0-1.2.97-1.75 2.06-1.76v-.16c0-.65-.16-1.1-.77-1.1-.3 0-.58.1-.8.25l-.18-.55c.2-.15.65-.32 1.13-.32.97 0 1.4.64 1.4 1.73v2.1c0 .36 0 .78.04 1.1H35zm-.12-2.5c-.4 0-1.33.07-1.33 1.12 0 .63.32.86.6.86.33 0 .62-.25.7-.72.03-.1.03-.2.03-.28v-.97zm2.7-3.6V133h.92v.6h-.93v2.87c0 .62.23.8.5.8.13 0 .23-.02.32-.04l.02.6c-.14.05-.32.07-.57.07-.3 0-.57-.07-.76-.28-.2-.23-.3-.55-.3-1.22v-2.8h-.6v-.6h.6v-1.05l.77-.22zm2.43.02c.02.3-.17.5-.46.5-.25 0-.44-.2-.44-.5s.2-.5.45-.5c.28 0 .46.2.46.5zm-.82 6.08V133h.77v4.84h-.77zm4.8-2.42c0 1.87-.86 2.5-1.6 2.5-.87 0-1.57-.8-1.57-2.48 0-1.77.8-2.5 1.63-2.5.86 0 1.56.8 1.56 2.48zm-2.4 0c0 .8.14 1.9.84 1.9.66 0 .8-1.15.8-1.9 0-.73-.14-1.87-.82-1.87-.7 0-.82 1.14-.82 1.87zm3.27-1.16c0-.57-.03-.86-.04-1.25h.68l.04.6h.02c.2-.4.6-.67 1.1-.67.68 0 1.18.5 1.18 1.67v3.24h-.77v-3.1c0-.58-.1-1.16-.67-1.16-.32 0-.63.27-.73.8-.02.1-.03.26-.03.42v3.04h-.77v-3.58zm5.68-3.05c.3-.08.65-.12 1.04-.12.7 0 1.2.18 1.58.5.52.46.9 1.33.9 2.74 0 1.54-.37 2.38-.8 2.84-.44.5-1.08.72-1.86.72-.32 0-.64-.02-.87-.07v-6.6zm.77 6c.1.03.22.03.3.03.84 0 1.66-.6 1.66-2.9 0-1.7-.52-2.62-1.6-2.62-.12 0-.26.02-.36.05v5.46zm5.53.64l-.05-.5h-.03c-.2.36-.55.58-.96.58-.66 0-1.16-.55-1.16-1.38 0-1.2.97-1.74 2.06-1.76v-.14c0-.65-.16-1.1-.77-1.1-.3 0-.57.1-.8.25l-.17-.55c.2-.15.65-.32 1.13-.32.96 0 1.38.64 1.38 1.73v2.1c0 .36 0 .78.05 1.1h-.7zm-.1-2.5c-.4 0-1.34.07-1.34 1.12 0 .63.3.86.58.86.34 0 .63-.25.72-.73.02-.1.02-.2.02-.28v-.98zm2.68-3.6V133h.94v.6h-.93v2.86c0 .63.24.8.52.8.12 0 .22 0 .3-.03l.04.6c-.14.04-.32.07-.57.07-.3 0-.58-.08-.77-.3-.2-.2-.3-.53-.3-1.2v-2.8h-.58v-.6h.6v-1.05l.76-.22zm3.53 6.1l-.05-.5h-.03c-.2.36-.55.58-.96.58-.66 0-1.16-.55-1.16-1.37 0-1.2.97-1.75 2.06-1.76v-.16c0-.65-.16-1.1-.77-1.1-.3 0-.57.1-.8.25l-.17-.55c.2-.15.65-.32 1.13-.32.96 0 1.38.64 1.38 1.73v2.1c0 .36 0 .78.05 1.1h-.7zm-.1-2.5c-.4 0-1.34.07-1.34 1.12 0 .63.3.86.58.86.34 0 .63-.25.72-.72.02-.1.02-.2.02-.28v-.97z"/><path fill="none" stroke="#0071bc" d="M100.1 75.88l135.53 13.56" stroke-linecap="round" stroke-linejoin="round"/><path fill="#0071bc" d="M234.46 92.34l5.45-2.47-4.84-3.5z"/><path fill="none" stroke="#0071bc" d="M240.1 95.88l-134.5 12.8" stroke-linecap="round" stroke-linejoin="round"/><path fill="#0071bc" d="M106.2 105.62l-4.88 3.47 5.44 2.47z"/><path fill="none" stroke="#009245" d="M100.1 115.88l134.6 13.3" stroke-linecap="round" stroke-linejoin="round"/><path fill="#009245" d="M233.55 132.1l5.45-2.48-4.86-3.5z"/></svg>