<svg xmlns="http://www.w3.org/2000/svg" viewBox="0 0 344.261 215.438"><path fill="none" stroke="#000" d="M61.38 73.44h173.7m-140 20h176.8m-176.8 40h183.63" stroke-dasharray="1 1"/><path fill="#b2d4eb" fill-rule="evenodd" d="M73.3 78.37c0 1.98-1.63 3.6-3.6 3.6H6.97a3.6 3.6 0 0 1-3.6-3.6V68.5c0-1.97 1.62-3.6 3.6-3.6h62.7c2 0 3.6 1.63 3.6 3.6v9.87z" clip-rule="evenodd"/><path fill="none" stroke="#000" d="M73.3 78.37c0 1.98-1.63 3.6-3.6 3.6H6.97a3.6 3.6 0 0 1-3.6-3.6V68.5c0-1.97 1.62-3.6 3.6-3.6h62.7c2 0 3.6 1.63 3.6 3.6v9.87z" stroke-linecap="round" stroke-linejoin="round"/><path fill="#b2d4eb" fill-rule="evenodd" d="M326.3 98.37c0 1.98-1.63 3.6-3.6 3.6h-62.72c-1.98 0-3.6-1.62-3.6-3.6V88.5c0-1.97 1.62-3.6 3.6-3.6h62.7c1.98 0 3.6 1.63 3.6 3.6v9.87z" clip-rule="evenodd"/><path fill="none" stroke="#000" d="M326.3 98.37c0 1.98-1.63 3.6-3.6 3.6h-62.72c-1.98 0-3.6-1.62-3.6-3.6V88.5c0-1.97 1.62-3.6 3.6-3.6h62.7c1.98 0 3.6 1.63 3.6 3.6v9.87z" stroke-linecap="round" stroke-linejoin="round"/><path fill="none" stroke="#000" d="M61.38 113.44h173.7" stroke-dasharray="1 1"/><path fill="#fddfbb" fill-rule="evenodd" d="M326.3 145.68c0 1.98-1.63 3.6-3.6 3.6h-62.72c-1.98 0-3.6-1.62-3.6-3.6V121.2c0-1.98 1.62-3.6 3.6-3.6h62.7c1.98 0 3.6 1.62 3.6 3.6v24.48z" clip-rule="evenodd"/><path fill="none" stroke="#000" d="M326.3 145.68c0 1.98-1.63 3.6-3.6 3.6h-62.72c-1.98 0-3.6-1.62-3.6-3.6V121.2c0-1.98 1.62-3.6 3.6-3.6h62.7c1.98 0 3.6 1.62 3.6 3.6v24.48z" stroke-linecap="round" stroke-linejoin="round"/><path fill="none" stroke="#000" d="M95.1 173.44h176.78m-210.5-20h173.7" stroke-dasharray="1 1"/><path fill="#fddfbb" fill-rule="evenodd" d="M73.3 165.6c0 1.97-1.63 3.6-3.6 3.6H6.97a3.6 3.6 0 0 1-3.6-3.6v-14.4c0-1.98 1.62-3.6 3.6-3.6h62.7c2 0 3.6 1.62 3.6 3.6v14.4z" clip-rule="evenodd"/><path fill="none" stroke="#000" d="M73.3 165.6c0 1.97-1.63 3.6-3.6 3.6H6.97a3.6 3.6 0 0 1-3.6-3.6v-14.4c0-1.98 1.62-3.6 3.6-3.6h62.7c2 0 3.6 1.62 3.6 3.6v14.4z" stroke-linecap="round" stroke-linejoin="round"/><path fill="none" stroke="#000" d="M95.08 193.44h140" stroke-dasharray="1 1"/><path fill="#ccc" fill-rule="evenodd" d="M326.5 178.37c0 1.98-1.6 3.6-3.6 3.6h-62.7a3.6 3.6 0 0 1-3.6-3.6v-9.86c0-1.97 1.62-3.6 3.6-3.6h62.7c2 0 3.6 1.63 3.6 3.6v9.87z" clip-rule="evenodd"/><path fill="none" stroke="#000" d="M326.5 178.37c0 1.98-1.6 3.6-3.6 3.6h-62.7a3.6 3.6 0 0 1-3.6-3.6v-9.86c0-1.97 1.62-3.6 3.6-3.6h62.7c2 0 3.6 1.63 3.6 3.6v9.87zM235.1 43.5v161.94" stroke-linecap="round" stroke-linejoin="round"/><path d="M232.08 204.56l3 5.18 3-5.18z"/><path fill="none" stroke="#0071bc" d="M95.1 75.88l135.53 13.56" stroke-linecap="round" stroke-linejoin="round"/><path fill="#0071bc" d="M229.46 92.34l5.45-2.47-4.84-3.5z"/><path fill="none" stroke="#0071bc" d="M235.1 95.88l-134.5 12.8" stroke-linecap="round" stroke-linejoin="round"/><path fill="#0071bc" d="M101.2 105.62l-4.88 3.47 5.44 2.47z"/><path fill="none" stroke="#009245" d="M235.1 135.88l-134.5 12.8" stroke-linecap="round" stroke-linejoin="round"/><path fill="#009245" d="M101.2 145.62l-4.88 3.47 5.44 2.47z"/><path fill="none" stroke="#009245" d="M95.1 115.88l134.6 13.3" stroke-linecap="round" stroke-linejoin="round"/><path fill="#009245" d="M228.55 132.1l5.45-2.48-4.86-3.5z"/><path fill="none" stroke="#000" d="M235.1 175.88l-134.5 12.8" stroke-dasharray="2 2"/><path d="M101.2 185.62l-4.88 3.47 5.44 2.47z"/><path fill="none" stroke="#000" d="M95.1 155.88l134.6 13.3" stroke-linecap="round" stroke-linejoin="round"/><path d="M228.55 172.1l5.45-2.48-4.86-3.5z"/><path fill="none" stroke="#000" d="M95.1 43.5v161.94" stroke-linecap="round" stroke-linejoin="round"/><path d="M92.08 204.56l3 5.18 3-5.18z"/><path fill="#ccc" d="M96.77 56.48v1.3L75.63 45.7v-1.3z"/><path fill="#808080" d="M96.77 56.48l14.73-8.38v1.3l-14.73 8.4z"/><path fill="#fff" d="M75.63 44.37l14.7-8.43L111.5 48.1l-14.73 8.38z"/><path fill="#999" d="M113.55 29.1l1-.57-2.07 18.96-1 .56zM98.6 53.2v.25L80.73 43.2v-.24z"/><path fill="#b3b3b3" d="M98.6 53.2l10.13-5.76v.25L98.6 53.44z"/><path fill="#e6e6e6" d="M80.73 42.96l10.1-5.8 17.9 10.28L98.6 53.2zm2.57 5.48l2.9-1.67 5.14 2.95-2.9 1.66zm30.25-19.35l-2.06 18.96-21.15-12.12 2.06-18.96z"/><path fill="#0071bc" d="M110.65 46.6L91.2 35.45l2.05-17.02 19.46 11.15-2.05 17.02z"/><path fill="#b3b3b3" d="M92.4 16.98l.98-.6 21.16 12.15-1 .56z"/><path fill="none" stroke="#000" d="M112.48 47.5l2.06-18.97-21.16-12.16-.97.6-2.05 18.97-14.72 8.43v1.3L96.77 57.8l14.73-8.4v-1.34z" stroke-linecap="round" stroke-linejoin="round"/><path fill="#b3b3b3" d="M231.7 31.72v29.23l-11.47-7.06V24.64z"/><path fill="#333" d="M229.6 32.64v3.5l-8.2-5.05v-3.5zm0 11.77v3.5l-8.2-5.05v-3.48z"/><path fill="#e6e6e6" d="M229.6 40.02v1L221.4 36v-1.02z"/><path fill="#333" d="M229.6 49.36v3.5l-8.2-5.05v-3.48zm0 4.95v3.5l-8.2-5.03v-3.5z"/><path fill="#808080" d="M231.7 31.73l18.2-11.48V49.5l-18.2 11.47z"/><path fill="#999" d="M220.25 24.67l18.23-11.48 11.46 7.05-18.2 11.48z"/><path fill="#009245" d="M221.67 31.57c.18.1.32.36.32.58 0 .2-.15.3-.33.2a.74.74 0 0 1-.3-.6c0-.2.13-.3.3-.18"/><path fill="#c1272d" d="M222.44 32.04c.18.1.32.37.32.6 0 .2-.15.3-.32.18-.18-.1-.32-.37-.32-.58 0-.22.14-.3.32-.2"/><path fill="#009245" d="M223.2 32.5a.76.76 0 0 1 .32.6c0 .2-.14.3-.3.18-.2-.1-.33-.37-.33-.58 0-.22.13-.3.3-.2"/><path fill="#c1272d" d="M223.97 32.98c.18.1.32.37.32.58 0 .2-.16.3-.33.2-.17-.1-.32-.38-.32-.6 0-.2.15-.3.32-.18m.78.47a.74.74 0 0 1 .3.6c0 .2-.13.3-.3.18a.76.76 0 0 1-.32-.58c0-.2.14-.3.32-.2"/><path fill="#009245" d="M225.52 33.93c.17.1.3.37.3.6 0 .2-.13.3-.3.18-.18-.1-.32-.36-.32-.58 0-.2.14-.3.32-.2m.76.47a.75.75 0 0 1 .32.58c0 .22-.15.3-.32.2-.17-.12-.3-.38-.3-.6 0-.2.13-.3.3-.2m.77.5c.17.1.3.35.3.57s-.13.3-.3.2a.74.74 0 0 1-.32-.6c0-.2.15-.3.32-.18"/><path fill="#c1272d" d="M221.67 32.7c.18.1.32.37.32.6 0 .2-.15.28-.33.18a.75.75 0 0 1-.3-.6c0-.2.13-.3.3-.18m.77.48c.18.1.32.37.32.58 0 .22-.15.3-.32.2-.18-.1-.32-.38-.32-.6 0-.2.14-.3.32-.18"/><path fill="#009245" d="M223.2 33.64c.18.1.32.38.32.58 0 .22-.14.3-.3.2-.2-.1-.33-.37-.33-.6 0-.2.13-.3.3-.18"/><path fill="#c1272d" d="M223.97 34.1c.18.12.32.38.32.6 0 .2-.16.3-.33.2a.77.77 0 0 1-.32-.6c0-.2.15-.3.32-.2"/><path fill="#009245" d="M224.75 34.6a.74.74 0 0 1 .3.57c0 .22-.13.3-.3.2-.18-.1-.32-.37-.32-.6 0-.2.14-.3.32-.18"/><path fill="#c1272d" d="M225.52 35.06c.17.1.3.38.3.6 0 .2-.13.3-.3.18a.76.76 0 0 1-.32-.58c0-.2.14-.3.32-.2"/><path fill="#009245" d="M226.28 35.53a.76.76 0 0 1 .32.58c0 .23-.15.32-.32.2-.17-.1-.3-.36-.3-.58 0-.2.13-.3.3-.2"/><path fill="#c1272d" d="M227.05 36c.17.1.3.37.3.6s-.13.28-.3.18a.76.76 0 0 1-.32-.58c0-.22.15-.3.32-.2"/><path fill="#009245" d="M227.64 40.88c.18.1.32.37.32.6 0 .2-.14.3-.32.18a.76.76 0 0 1-.3-.6c0-.2.13-.3.3-.18m.77.46a.76.76 0 0 1 .33.6c0 .2-.15.3-.32.18a.74.74 0 0 1-.3-.58c0-.22.14-.3.3-.2"/><path fill="#c1272d" d="M229.18 41.82c.17.1.3.36.3.58 0 .2-.13.3-.3.2a.74.74 0 0 1-.32-.6c0-.2.14-.3.32-.18m-1.54.2c.18.1.32.37.32.58 0 .22-.14.3-.32.2-.17-.1-.3-.38-.3-.6 0-.2.13-.3.3-.18m.77.46a.77.77 0 0 1 .33.58c0 .22-.15.3-.32.2-.17-.1-.3-.37-.3-.6 0-.2.14-.3.3-.18"/><path fill="#009245" d="M229.18 42.95c.17.1.3.37.3.6 0 .2-.13.3-.3.18a.73.73 0 0 1-.32-.58c0-.22.14-.3.32-.2"/><path fill="none" stroke="#000" d="M249.94 20.25l-11.46-7.06-18.22 11.47-.03-.02V53.9l11.48 7.05v.02l18.2-11.48V20.26z" stroke-linecap="round" stroke-linejoin="round"/><path d="M240.72 73.28c0 1.9-.6 2.67-1.35 2.67-.8 0-1.3-.96-1.3-2.66 0-1.76.52-2.68 1.37-2.68.84 0 1.28 1 1.28 2.66zm-2.03 0c0 1.26.2 2.14.7 2.14.5 0 .7-.9.7-2.13s-.2-2.15-.7-2.15-.7.9-.7 2.13zm3.92-.27c0-.44-.02-.67-.03-1h.53l.03.5c.18-.32.48-.55.9-.55.35 0 .65.18.8.6.1-.2.25-.35.4-.45a.93.93 0 0 1 .53-.15c.5 0 .92.4.92 1.37v2.56h-.6v-2.42c0-.5-.08-1-.56-1-.25 0-.47.23-.56.6a2.24 2.24 0 0 0-.03.34v2.48h-.6v-2.53c0-.43-.08-.88-.54-.88-.25 0-.5.22-.57.62a2.2 2.2 0 0 0-.03.33v2.45h-.6V73zm4.86 2.24c.14.1.37.2.62.2.35 0 .57-.2.57-.56 0-.3-.1-.5-.5-.76-.5-.32-.77-.65-.77-1.1a1.04 1.04 0 0 1 1.06-1.07c.3 0 .54.1.7.2l-.17.46a.9.9 0 0 0-.52-.16.47.47 0 0 0-.5.5c0 .26.1.4.47.66.45.3.8.64.8 1.18 0 .77-.52 1.15-1.16 1.15-.3 0-.6-.1-.78-.22l.16-.46zM77.42 95.88v-.4l.44-.6c.62-.85 1.35-1.83 1.35-2.8 0-.58-.24-.93-.73-.93-.38 0-.62.2-.75.3l-.15-.48a1.62 1.62 0 0 1 1-.35c.87 0 1.25.64 1.25 1.42 0 .98-.64 1.92-1.28 2.8l-.35.48v.02h1.72v.54h-2.5zm3.05-1.27c0-.72.43-1.18.86-1.47v-.02c-.44-.3-.7-.74-.7-1.18 0-.8.58-1.3 1.22-1.3.75 0 1.1.63 1.1 1.23 0 .45-.2.9-.68 1.22v.02c.48.3.83.78.83 1.4 0 .82-.53 1.45-1.33 1.45-.87 0-1.3-.7-1.3-1.34zm2.02-.05c0-.6-.35-.94-.75-1.2a1.4 1.4 0 0 0-.67 1.16c0 .6.26 1 .7 1 .4 0 .7-.3.7-.95zm-1.27-2.67c0 .52.32.8.64 1 .3-.23.52-.57.52-.96 0-.5-.22-.84-.6-.84-.34 0-.57.33-.57.8zM85 93c0-.44 0-.67-.02-1h.54l.03.5h.02c.16-.32.46-.55.87-.55.36 0 .66.18.8.6h.02c.1-.2.24-.35.4-.45a.93.93 0 0 1 .52-.15c.52 0 .93.38.93 1.37v2.56h-.6v-2.42c0-.5-.07-1-.54-1-.26 0-.48.23-.57.6a2.37 2.37 0 0 0-.03.34v2.48h-.6v-2.53c0-.43-.1-.88-.55-.88-.24 0-.5.22-.57.62a2.2 2.2 0 0 0-.03.33v2.45h-.6V93zm4.87 2.24c.14.1.38.2.62.2.35 0 .56-.2.56-.56 0-.3-.1-.5-.5-.76-.5-.32-.77-.65-.77-1.1 0-.62.45-1.07 1.05-1.07.3 0 .54.1.7.2l-.17.46a.9.9 0 0 0-.5-.16.47.47 0 0 0-.5.5c0 .26.08.4.46.66.45.3.8.64.8 1.18 0 .77-.52 1.15-1.16 1.15-.28 0-.6-.1-.76-.22l.15-.46zM77.4 134.6c0-.72.42-1.18.85-1.47v-.02c-.44-.3-.7-.74-.7-1.18 0-.8.58-1.3 1.22-1.3.75 0 1.1.63 1.1 1.23 0 .45-.2.9-.68 1.22v.02c.47.3.82.8.82 1.4 0 .82-.53 1.45-1.33 1.45-.88 0-1.3-.7-1.3-1.34zm2-.05c0-.6-.33-.94-.73-1.2a1.4 1.4 0 0 0-.67 1.16c0 .6.26 1 .7 1 .4 0 .7-.3.7-.95zm-1.25-2.67c0 .53.32.8.64 1 .3-.23.5-.57.5-.96 0-.5-.2-.84-.57-.84-.35 0-.58.33-.58.8zm3.97 4v-1.43H80.4v-.4l1.68-3.36h.6v3.25h.57v.5h-.57v1.43h-.56zm0-1.93v-1.47c0-.36.02-.68.05-1.03h-.04c-.17.42-.28.67-.44 1l-.73 1.48v.02h1.15zm2.9-.94c0-.44-.03-.67-.04-1h.54l.03.5h.02c.16-.32.46-.55.87-.55.36 0 .66.18.8.6h.02c.1-.2.24-.35.4-.45a.93.93 0 0 1 .52-.15c.52 0 .93.4.93 1.37v2.56h-.6v-2.42c0-.5-.07-1-.54-1-.26 0-.48.23-.57.58a2.37 2.37 0 0 0-.03.36v2.48h-.6v-2.53c0-.43-.1-.88-.55-.88-.24 0-.5.22-.57.62a2.2 2.2 0 0 0-.03.33v2.45h-.6V133zm4.85 2.24c.14.1.38.2.62.2.35 0 .56-.2.56-.56 0-.3-.1-.5-.5-.76-.5-.32-.77-.65-.77-1.1 0-.62.45-1.07 1.05-1.07.3 0 .54.1.7.2l-.17.46a.9.9 0 0 0-.5-.16.47.47 0 0 0-.5.5c0 .26.08.4.46.66.45.3.8.64.8 1.18 0 .77-.52 1.15-1.16 1.15-.28 0-.6-.1-.76-.22l.15-.46zm-57.2-59.76c.24.15.64.27.98.27.7 0 1.12-.46 1.12-1.14 0-.6-.36-1-.9-1.38-.52-.37-1.26-1-1.26-1.87 0-1.02.72-1.77 1.8-1.77.4 0 .78.13.94.25l-.2.66a1.4 1.4 0 0 0-.8-.24c-.65 0-.96.5-.96.96 0 .67.35.93 1 1.4.8.55 1.16 1.17 1.16 1.92 0 1.16-.82 1.9-1.9 1.9-.45 0-.94-.16-1.13-.3l.18-.66zm4.75.9V73.5l-1.48-3.88h.8l.6 1.68c.18.47.36 1 .5 1.52h.03c.14-.52.3-1.03.5-1.55l.56-1.66h.8L38.2 73.5v2.87h-.78zm2.96 0v-6.74h.73l1.25 3.15c.28.72.63 1.6.86 2.34h.03c-.06-1.06-.1-1.92-.1-3.1v-2.4h.7v6.73h-.73l-1.28-3.23c-.27-.68-.56-1.45-.8-2.3H41c.06.9.08 1.77.08 3.2v2.33h-.7zM84.8 7.47c.24.15.64.27.98.27.7 0 1.1-.46 1.1-1.14 0-.6-.35-1-.88-1.4-.52-.36-1.26-1-1.26-1.86 0-1.02.7-1.77 1.77-1.77.43 0 .8.13.96.25l-.2.66a1.4 1.4 0 0 0-.8-.23c-.65 0-.95.5-.95.96 0 .68.36.94 1 1.4.8.57 1.16 1.2 1.16 1.94 0 1.16-.82 1.9-1.9 1.9-.45 0-.94-.16-1.13-.3l.18-.66zm4.32-1.46c0 1.48.58 1.8 1.14 1.8.33 0 .6-.08.8-.2l.12.58c-.27.15-.68.23-1.06.23-1.16 0-1.76-.95-1.76-2.43 0-1.57.66-2.55 1.63-2.55.98 0 1.37 1.04 1.37 2.14 0 .17 0 .3 0 .42H89.1zm1.5-.57c.03-.97-.34-1.4-.7-1.4-.5 0-.76.74-.8 1.4h1.5zm1.6-.67c0-.57-.04-.86-.05-1.25h.67l.04.58h.02c.2-.38.6-.65 1.1-.65.67 0 1.17.5 1.17 1.67v3.25h-.77V5.25c0-.57-.1-1.15-.67-1.15-.32 0-.63.27-.72.8 0 .1-.02.26-.02.42v3.05h-.77v-3.6zm6.94-3.33V7.2c0 .34.03.9.04 1.17h-.66l-.05-.6h-.04c-.16.34-.5.68-1 .68-.83 0-1.42-.9-1.42-2.48 0-1.72.7-2.52 1.46-2.52.35 0 .7.17.88.58h.02V1.45h.76zm-.76 3.92c0-.1 0-.2 0-.32-.06-.5-.36-.94-.73-.94-.64 0-.86.9-.86 1.87 0 1.02.27 1.84.83 1.84.24 0 .57-.12.74-.82.02-.1.03-.2.03-.32v-1.3zm2.38.65c0 1.48.6 1.8 1.15 1.8.33 0 .6-.08.8-.2l.12.58c-.27.15-.68.23-1.06.23-1.17 0-1.77-.95-1.77-2.43 0-1.57.66-2.55 1.63-2.55 1 0 1.38 1.04 1.38 2.14 0 .17 0 .3 0 .42h-2.26zm1.52-.57c.02-.97-.35-1.4-.72-1.4-.5 0-.76.74-.8 1.4h1.52zm1.56-.67c0-.4-.03-.9-.04-1.25h.7l.03.76h.02c.16-.47.57-.85 1.02-.85.05 0 .1 0 .15 0v.8c-.05 0-.1 0-.16 0-.5 0-.86.44-.94 1-.02.13-.03.28-.03.44v2.67h-.77v-3.6zm121.8-3.05c.32-.1.72-.13 1.1-.13.67 0 1.17.14 1.52.48.33.34.47.8.47 1.32 0 .86-.4 1.42-1.08 1.73v.02c.5.15.76.63.9 1.5.16.94.3 1.5.4 1.72h-.8c-.1-.2-.22-.84-.35-1.67-.15-.92-.44-1.27-1.1-1.27h-.3v2.94h-.77V1.73zm.76 3.1h.32c.74 0 1.23-.53 1.23-1.34 0-.8-.32-1.27-1.15-1.28-.15 0-.3 0-.4.04v2.58zm3.8 1.2c0 1.47.6 1.8 1.15 1.8.33 0 .6-.1.8-.2l.12.57c-.28.15-.7.23-1.07.23-1.16 0-1.76-.95-1.76-2.43 0-1.57.66-2.55 1.63-2.55 1 0 1.38 1.04 1.38 2.14 0 .17 0 .3 0 .42h-2.26zm1.52-.58c.02-.97-.35-1.4-.72-1.4-.5 0-.76.74-.8 1.4h1.52zm3.93 2.8c-.17.1-.46.18-.8.18-1.06 0-1.77-.85-1.77-2.45 0-1.4.7-2.52 1.9-2.52.27 0 .55.07.7.15l-.16.64a1.26 1.26 0 0 0-.55-.13c-.78 0-1.13.93-1.13 1.88 0 1.13.43 1.8 1.14 1.8.22 0 .4-.04.57-.12l.1.6zm1.14-2.23c.02 1.48.6 1.8 1.16 1.8.33 0 .6-.08.8-.2l.12.58c-.27.15-.68.23-1.06.23-1.16 0-1.76-.95-1.76-2.43 0-1.57.66-2.55 1.63-2.55.98 0 1.37 1.04 1.37 2.14 0 .17 0 .3 0 .42h-2.26zm1.53-.57c.02-.97-.35-1.4-.72-1.4-.5 0-.75.74-.78 1.4h1.5zm2.4-3.17c0 .3-.18.5-.47.5-.25 0-.44-.2-.44-.5s.2-.5.45-.5c.28 0 .46.2.46.5zm-.83 6.1V3.52h.77v4.84h-.77zm2.23-4.85l.6 2.72c.08.33.16.76.22 1.18h.03c.05-.4.13-.8.2-1.18l.6-2.72h.76l-1.26 4.84h-.7l-1.25-4.84h.8zm3.5 2.5c0 1.47.58 1.8 1.14 1.8.33 0 .6-.1.8-.2l.12.57c-.28.15-.7.23-1.07.23-1.16 0-1.76-.95-1.76-2.43 0-1.57.66-2.55 1.63-2.55 1 0 1.38 1.04 1.38 2.14 0 .17 0 .3 0 .42h-2.26zm1.5-.58c.03-.97-.34-1.4-.7-1.4-.5 0-.77.74-.8 1.4h1.5zm1.57-.67c0-.4-.03-.9-.04-1.25h.7l.03.76c.17-.47.58-.85 1.03-.85.06 0 .1 0 .16 0v.8c-.06 0-.1 0-.17 0-.5 0-.85.44-.93 1-.02.13-.03.28-.03.44v2.67h-.77v-3.6zm30.46 90.7c.23.15.63.27.97.27.7 0 1.12-.46 1.12-1.14 0-.6-.36-1-.9-1.38-.52-.37-1.26-1-1.26-1.87 0-1.02.7-1.77 1.77-1.77.42 0 .8.13.95.25l-.2.66a1.4 1.4 0 0 0-.8-.24c-.65 0-.96.5-.96.96 0 .67.35.93 1 1.4.8.55 1.16 1.17 1.16 1.92 0 1.16-.82 1.9-1.9 1.9-.45 0-.94-.16-1.13-.3l.16-.66zm4.74.9V93.5l-1.48-3.88h.8l.6 1.68c.18.47.36 1 .5 1.52h.03c.14-.52.3-1.03.5-1.55l.56-1.66h.82l-1.55 3.85v2.87h-.77zm2.96 0v-6.74h.73l1.23 3.15c.28.72.63 1.6.86 2.34a50.66 50.66 0 0 1-.08-3.1v-2.4h.7v6.73h-.74l-1.28-3.23c-.27-.68-.56-1.45-.8-2.3h-.02c.06.9.08 1.77.08 3.2v2.33h-.7zm7.03-2.03l-.46 2.02h-.74l1.54-6.73h.85l1.5 6.73h-.77l-.45-2.02h-1.5zm1.38-.62l-.35-1.7c-.1-.48-.2-1.04-.27-1.54h-.04c-.08.5-.18 1.07-.27 1.52l-.35 1.7h1.28zm4.9 2.52c-.22.1-.55.18-.97.18-1.3 0-2.25-1.06-2.25-3.35 0-2.65 1.32-3.5 2.38-3.5.4 0 .7.08.84.17l-.17.65c-.16-.07-.33-.14-.68-.14-.72 0-1.56.7-1.56 2.75 0 2.07.76 2.75 1.58 2.75.3 0 .55-.07.7-.15l.13.65zm.78-6.6h.77v3.18h.02c.15-.28.3-.55.42-.8l1.26-2.4h.85l-1.65 2.88 1.7 3.87h-.84l-1.4-3.25-.37.65v2.6h-.77v-6.73zm40.38-11.52v-1.1h.62v2.9h-.62v-1.1h-5.45v-.7h5.44zM336 82.96c-.1-.2-.16-.48-.16-.86 0-1.2.95-2.04 3-2.04 2.4 0 3.17 1.2 3.17 2.15 0 .38-.06.64-.14.76l-.58-.15c.06-.13.12-.3.12-.6 0-.65-.63-1.4-2.48-1.4-1.86 0-2.47.68-2.47 1.42 0 .26.06.5.14.63l-.6.1zm5.87.7c.07.3.1.62.1 1.02 0 .56-.12 1.03-.44 1.34-.28.3-.72.45-1.25.45-.55 0-.93-.13-1.24-.37-.45-.33-.67-.9-.67-1.43 0-.12 0-.2 0-.3h-2.48v-.7h5.97zm-2.9.7a1.1 1.1 0 0 0-.04.28c0 .68.45 1.14 1.3 1.14.63 0 1.2-.26 1.2-1.03 0-.16-.03-.3-.06-.38h-2.4zm-.46 6.02h-.53V88.4h.54v1.98zm2.63 6.1V94.9l-1.56-.25a.8.8 0 0 1 .02.22c0 .3-.14.8-.45 1.1-.3.32-.74.5-1.33.5-1.16 0-2-.73-2-1.77 0-.35.1-.76.25-1l.56.16c-.1.18-.23.5-.23.82 0 .6.46 1.1 1.35 1.1.93 0 1.3-.56 1.3-1.32 0-.2 0-.35-.02-.46l2.7.37v2.1h-.6zm.1 3.33a3.33 3.33 0 0 0-.06-.4c-.24-.98-1.2-1.36-2.1-1.5v.02c.32.22.55.55.55 1 0 .74-.68 1.25-1.8 1.25-1.1 0-2-.5-2-1.44 0-1.02 1.04-1.53 2.38-1.53 1.13 0 2 .3 2.64.76.5.35.8.9.92 1.4.04.2.05.35.06.45h-.6zm-3.47-.32c.9 0 1.33-.3 1.33-.8 0-.27-.2-.57-.64-.74a.93.93 0 0 0-.35-.06c-1.2 0-1.74.38-1.74.85 0 .4.4.75 1.4.75zm1.36 2.82c.52 0 .78-.02 1.13-.03v.6l-.54.04v.02c.36.2.62.53.62.98 0 .4-.2.75-.67.9v.03c.22.12.4.27.5.43.12.18.17.38.17.6 0 .6-.43 1.05-1.54 1.05h-2.9v-.67h2.74c.57 0 1.1-.08 1.1-.62 0-.27-.23-.53-.63-.62a2.65 2.65 0 0 0-.4-.03h-2.8v-.7h2.85c.48 0 1-.08 1-.6 0-.27-.26-.56-.72-.64a2.5 2.5 0 0 0-.37 0h-2.77v-.7h3.22zm-2.5 5.47a1.38 1.38 0 0 0-.23.7c0 .4.23.64.62.64.33 0 .55-.1.85-.55.37-.57.74-.87 1.24-.87.7 0 1.22.52 1.22 1.2 0 .33-.12.6-.23.78l-.53-.2c.1-.16.2-.34.2-.57a.53.53 0 0 0-.56-.58c-.3 0-.45.1-.75.54-.32.5-.72.9-1.32.9-.87 0-1.3-.6-1.3-1.3 0-.33.1-.68.26-.87l.5.17zm-96.1 3.46h-1.4l-.22 1.38c.07 0 .12 0 .2 0 .27 0 .7.12 1 .4.26.26.42.64.42 1.17 0 1.03-.65 1.78-1.58 1.78-.3 0-.67-.1-.88-.23l.14-.5c.16.1.44.2.73.2.52 0 .98-.4.98-1.18 0-.83-.5-1.17-1.17-1.17-.2 0-.3 0-.4.02l.32-2.4h1.87v.53zm2.97-.1a2.63 2.63 0 0 0-.38.07c-.87.2-1.2 1.07-1.34 1.87h.03c.2-.3.5-.5.88-.5.67 0 1.12.6 1.12 1.6s-.44 1.78-1.27 1.78c-.9 0-1.36-.92-1.36-2.1 0-1.02.26-1.8.67-2.36a2.14 2.14 0 0 1 1.25-.83c.16-.03.3-.04.4-.05v.52zm-.3 3.1c0-.8-.28-1.2-.7-1.2-.26 0-.53.2-.68.58a.85.85 0 0 0-.05.32c0 1.06.34 1.55.76 1.55.35 0 .66-.35.66-1.25zm2.5-1.22c0-.44-.02-.67-.03-1h.54l.04.5c.18-.32.48-.55.9-.55.35 0 .65.18.8.6.1-.2.25-.35.4-.45a.93.93 0 0 1 .53-.15c.52 0 .93.38.93 1.37v2.56h-.6v-2.42c0-.5-.08-1-.55-1-.26 0-.48.23-.57.58a2.24 2.24 0 0 0-.02.36v2.48h-.6v-2.53c0-.43-.1-.88-.55-.88-.24 0-.5.22-.56.62a2.2 2.2 0 0 0-.03.33v2.45h-.6V113zm4.86 2.24c.14.1.37.2.62.2.35 0 .57-.2.57-.56 0-.3-.1-.5-.5-.76-.5-.32-.77-.65-.77-1.1a1.04 1.04 0 0 1 1.06-1.07c.3 0 .54.1.7.2l-.17.46a.9.9 0 0 0-.5-.16.47.47 0 0 0-.52.5c0 .26.1.4.48.66.45.3.8.64.8 1.18 0 .77-.52 1.15-1.16 1.15-.28 0-.6-.1-.77-.22l.16-.46zm23.76 10.24c.23.15.63.27.97.27.7 0 1.1-.46 1.1-1.14 0-.6-.35-1-.88-1.4-.53-.36-1.27-.98-1.27-1.85 0-1.02.7-1.77 1.78-1.77.42 0 .8.13.95.25l-.2.66a1.4 1.4 0 0 0-.8-.24c-.65 0-.96.5-.96.96 0 .67.35.93 1 1.4.8.55 1.16 1.17 1.16 1.92 0 1.16-.82 1.9-1.9 1.9-.45 0-.94-.16-1.13-.3l.17-.66zm4.3-1.46c.02 1.48.6 1.8 1.16 1.8.33 0 .6-.08.8-.2l.12.58c-.27.15-.68.23-1.06.23-1.16 0-1.76-.95-1.76-2.43 0-1.57.66-2.55 1.63-2.55 1 0 1.4 1.04 1.4 2.14 0 .17 0 .3-.02.42h-2.25zm1.53-.57c.02-.97-.35-1.4-.72-1.4-.5 0-.76.74-.8 1.4h1.52zm1.56-.67c0-.4-.02-.9-.03-1.24h.7l.03.75h.02c.16-.46.57-.84 1.02-.84.06 0 .1 0 .16 0v.8c-.05-.02-.1-.02-.16-.02-.5 0-.85.45-.93 1 0 .14-.02.3-.02.45v2.67h-.77v-3.6zm3.15-1.24l.6 2.7c.08.34.16.77.22 1.2h.03c.05-.4.13-.82.2-1.2l.6-2.7h.76l-1.26 4.83h-.7l-1.25-4.83h.8zm3.5 2.48c0 1.48.58 1.8 1.14 1.8.32 0 .6-.08.8-.2l.1.58c-.26.15-.67.23-1.05.23-1.16 0-1.76-.95-1.76-2.43 0-1.57.65-2.55 1.62-2.55 1 0 1.38 1.04 1.38 2.14 0 .17 0 .3 0 .42h-2.26zm1.5-.57c.03-.97-.34-1.4-.7-1.4-.5 0-.77.74-.8 1.4h1.5zm1.57-.67c0-.4-.03-.9-.04-1.24h.7l.03.75h.03c.16-.46.57-.84 1.02-.84.06 0 .1 0 .16 0v.8c-.04-.02-.1-.02-.15-.02-.5 0-.85.45-.93 1-.02.14-.03.3-.03.45v2.67h-.78v-3.6zm3.32-3.14v2.88h1.9v-2.88h.76v6.73h-.77v-3.15h-1.9v3.15h-.76v-6.73h.77zm4.3 4.38c0 1.48.6 1.8 1.15 1.8.32 0 .6-.08.8-.2l.1.58c-.26.15-.67.23-1.05.23-1.16 0-1.76-.95-1.76-2.43 0-1.57.65-2.55 1.62-2.55 1 0 1.38 1.04 1.38 2.14 0 .17 0 .3 0 .42h-2.26zm1.52-.57c.02-.97-.35-1.4-.72-1.4-.5 0-.76.74-.8 1.4h1.52zm1.57-4h.77v6.92h-.77v-6.9zm1.9 0h.78v6.92h-.76v-6.9zm4.9 4.5c0 1.87-.88 2.5-1.62 2.5-.86 0-1.56-.8-1.56-2.5 0-1.76.8-2.5 1.62-2.5.86 0 1.56.8 1.56 2.5zm-2.42 0c0 .8.15 1.9.85 1.9.66 0 .8-1.15.8-1.9 0-.74-.14-1.88-.82-1.88-.7 0-.82 1.14-.82 1.88zm-39.9 12.3c-.22.1-.55.18-.97.18-1.32 0-2.26-1.06-2.26-3.35 0-2.65 1.32-3.5 2.38-3.5.4 0 .7.08.84.17l-.18.64c-.16-.08-.33-.15-.68-.15-.72 0-1.56.7-1.56 2.76 0 2.07.76 2.75 1.58 2.75.3 0 .55-.07.7-.15l.13.65zm.7-6.8h.76v2.6h.02c.1-.16.25-.3.4-.4.18-.12.37-.2.65-.2.6 0 1.13.5 1.13 1.7v3.22h-.77v-3.12c0-.6-.14-1.14-.66-1.14-.36 0-.63.27-.75.78-.03.1-.04.25-.04.37v3.12h-.77v-6.9zm5.95 6.92l-.05-.5h-.03c-.2.36-.55.58-.96.58-.64 0-1.14-.55-1.14-1.38 0-1.2.97-1.75 2.06-1.76v-.14c0-.64-.16-1.1-.77-1.1-.3 0-.57.1-.8.25l-.17-.53c.2-.14.65-.3 1.13-.3.98 0 1.4.63 1.4 1.72v2.07c0 .37 0 .8.05 1.1h-.7zm-.1-2.5c-.4 0-1.34.07-1.34 1.12 0 .62.33.85.6.85.34 0 .63-.25.72-.73.02-.1.02-.2.02-.27v-.98zm1.83-1.1c0-.55-.03-.84-.04-1.23h.67l.05.57h.02c.2-.38.6-.64 1.1-.64.68 0 1.18.5 1.18 1.66v3.25h-.77v-3.12c0-.56-.1-1.14-.67-1.14-.3 0-.62.28-.72.8-.02.1-.03.27-.03.43v3.04h-.77v-3.6zm7-1.23c0 .34-.03.77-.03 1.5v2.7c0 1.28-.16 1.76-.48 2.1-.3.34-.75.53-1.3.53-.4 0-.8-.1-1.05-.24l.18-.6c.2.1.5.2.9.2.6 0 1-.37 1-1.47v-.5h-.03c-.17.4-.52.6-.93.6-.86 0-1.42-.97-1.42-2.38 0-1.78.8-2.52 1.52-2.52.52 0 .76.34.9.63h.02l.04-.56h.7zm-.8 1.66c0-.12 0-.25-.03-.35-.1-.33-.26-.74-.7-.74-.56 0-.86.76-.86 1.83 0 1.24.38 1.8.85 1.8.23 0 .53-.1.7-.7.03-.14.04-.3.04-.43v-1.4zm2.38.82c0 1.48.6 1.8 1.15 1.8.34 0 .62-.08.8-.2l.13.58c-.27.15-.68.23-1.06.23-1.16 0-1.76-.95-1.76-2.43 0-1.57.67-2.55 1.64-2.55 1 0 1.38 1.04 1.38 2.14 0 .17 0 .3 0 .42h-2.26zm1.52-.57c.02-.97-.35-1.4-.72-1.4-.5 0-.76.74-.8 1.4h1.52zm4.57 2.8c-.2.1-.54.18-.96.18-1.33 0-2.27-1.06-2.27-3.35 0-2.65 1.32-3.5 2.38-3.5.42 0 .7.08.85.17l-.17.64c-.16-.08-.33-.15-.68-.15-.72 0-1.56.7-1.56 2.76 0 2.07.76 2.75 1.58 2.75.3 0 .55-.07.7-.15l.13.65zm1.52-5.96c0 .3-.18.5-.47.5-.25 0-.44-.2-.44-.5s.2-.5.45-.5c.3 0 .47.2.47.5zm-.83 6.07v-4.83h.77v4.83h-.76zm1.83-3.33c0-.74-.03-1.17-.04-1.5h.7l.03.6h.02c.26-.5.64-.7 1.02-.7.84 0 1.4.9 1.4 2.5 0 1.8-.74 2.5-1.5 2.5-.45 0-.7-.28-.84-.55h-.02v2.4h-.77v-5.26zm.77 1.55c0 .14 0 .28.03.4.15.68.5.8.7.8.65 0 .85-.87.85-1.85 0-1-.24-1.84-.85-1.84-.35 0-.66.45-.7.9-.03.1-.03.23-.03.36v1.23zm3.23-5.14h.77v2.6h.02c.1-.17.25-.32.4-.42.18-.1.37-.18.65-.18.62 0 1.14.48 1.14 1.7v3.2h-.77v-3.1c0-.6-.13-1.15-.65-1.15-.36 0-.63.27-.75.78-.02.1-.03.25-.03.37v3.12h-.77v-6.9zm4.6 4.56c0 1.48.58 1.8 1.14 1.8.34 0 .62-.08.8-.2l.13.58c-.27.15-.68.23-1.06.23-1.16 0-1.76-.95-1.76-2.43 0-1.57.67-2.55 1.64-2.55 1 0 1.38 1.04 1.38 2.14 0 .17 0 .3-.02.42h-2.24zm1.5-.57c.03-.97-.34-1.4-.7-1.4-.5 0-.77.74-.8 1.4h1.5zm1.57-.67c0-.4-.03-.9-.04-1.24h.7l.03.76h.02c.16-.46.57-.84 1.02-.84.06 0 .1 0 .16 0v.8c-.05-.02-.1-.02-.16-.02-.5 0-.85.45-.93 1-.02.14-.03.3-.03.45v2.67h-.76v-3.6zm2.4 2.7c.23.15.63.27.97.27.7 0 1.13-.46 1.13-1.14 0-.6-.36-1-.9-1.38-.52-.37-1.26-1-1.26-1.87 0-1.02.7-1.77 1.78-1.77.42 0 .78.13.94.25l-.2.66a1.4 1.4 0 0 0-.8-.24c-.65 0-.96.5-.96.96 0 .67.35.93.98 1.4.8.55 1.17 1.17 1.17 1.92 0 1.16-.83 1.9-1.9 1.9-.45 0-.94-.16-1.13-.3l.17-.66zm3.72-2.44c0-.73-.03-1.16-.04-1.5h.7l.03.6h.02c.26-.5.64-.68 1.02-.68.83 0 1.4.9 1.4 2.48 0 1.8-.75 2.5-1.5 2.5-.46 0-.72-.28-.85-.55h-.02v2.4h-.77v-5.26zm.77 1.55c0 .14 0 .28.03.4.14.68.5.8.7.8.65 0 .85-.87.85-1.85 0-1-.23-1.84-.84-1.84-.35 0-.66.45-.7.9-.04.1-.04.23-.04.36v1.23zm3.77-.58c0 1.48.58 1.8 1.14 1.8.33 0 .6-.08.8-.2l.12.58c-.27.15-.68.23-1.06.23-1.15 0-1.76-.95-1.76-2.43 0-1.56.66-2.54 1.63-2.54 1 0 1.38 1.03 1.38 2.13 0 .17 0 .3 0 .42h-2.25zm1.5-.56c.04-.97-.34-1.4-.7-1.4-.5 0-.76.74-.8 1.4h1.5zm3.94 2.8c-.17.1-.46.17-.8.17-1.06 0-1.77-.85-1.77-2.45 0-1.4.7-2.5 1.9-2.5.27 0 .55.06.7.13l-.16.64a1.26 1.26 0 0 0-.54-.13c-.77 0-1.1.93-1.1 1.88-.02 1.13.4 1.8 1.12 1.8.2 0 .38-.04.56-.12l.1.6zm-40.6 3.38h2.57v.67h-1.8v2.36h1.7v.65h-1.7v3.07h-.76v-6.73zm4.1.65c.02.3-.17.5-.46.5-.25 0-.44-.2-.44-.5s.2-.5.45-.5c.27 0 .45.2.45.5zm-.82 6.07v-4.83h.77v4.83h-.78zm1.84-3.58c0-.58-.03-.87-.04-1.26h.67l.03.58h.02c.2-.4.6-.66 1.1-.66.68 0 1.18.5 1.18 1.67v3.24h-.77v-3.1c0-.58-.1-1.16-.67-1.16-.33 0-.64.28-.74.8-.02.12-.03.27-.03.43v3.04h-.77v-3.58zm4.88-2.5c0 .3-.18.5-.47.5-.25 0-.44-.2-.44-.5s.2-.5.45-.5c.28 0 .46.2.46.5zm-.83 6.07v-4.83h.78v4.83h-.77zm1.72-.8c.17.1.47.25.78.25.44 0 .7-.27.7-.7 0-.37-.12-.62-.6-.95-.64-.4-.98-.8-.98-1.37 0-.78.58-1.34 1.33-1.34.38 0 .67.13.87.25l-.2.6c-.2-.13-.4-.22-.65-.22-.42 0-.63.3-.63.6 0 .33.12.5.6.84.56.36 1 .8 1 1.47 0 .96-.66 1.43-1.45 1.43-.37 0-.76-.1-.97-.28l.2-.58zm3.02-6.1h.77v2.6h.03c.1-.18.25-.33.4-.43.18-.1.37-.18.65-.18.6 0 1.13.48 1.13 1.7v3.2h-.76v-3.1c0-.6-.13-1.15-.65-1.15-.37 0-.64.27-.76.78-.02.1-.03.25-.03.37v3.12h-.76v-6.9zm4.6 4.55c0 1.48.58 1.8 1.14 1.8.33 0 .6-.08.8-.2l.12.58c-.27.15-.68.23-1.06.23-1.16 0-1.76-.95-1.76-2.43 0-1.56.66-2.54 1.63-2.54 1 0 1.4 1.03 1.4 2.13 0 .17 0 .3-.02.42h-2.25zm1.5-.57c.03-.96-.34-1.4-.7-1.4-.5 0-.77.75-.8 1.4h1.5zm4.5-4v5.76c0 .34.02.9.03 1.17h-.66l-.04-.6h-.03c-.16.34-.5.68-1 .68-.83 0-1.42-.9-1.42-2.48 0-1.72.72-2.52 1.47-2.52.35 0 .7.17.88.58h.02v-2.57h.76zm-.77 3.93c0-.1 0-.2 0-.32-.06-.5-.36-.94-.73-.94-.64 0-.86.9-.86 1.86 0 1.02.26 1.83.82 1.83.24 0 .57-.12.74-.82.02-.1.03-.2.03-.3v-1.3zM75.6 171.3h-.03l-.86.5-.1-.47 1.08-.64h.52v5.18h-.6v-4.57zm3.44 4.58v-1.43H77.3v-.4l1.7-3.36h.6v3.25h.57v.5h-.57v1.43h-.56zm0-1.93v-1.47c0-.36.02-.68.05-1.03h-.05c-.17.42-.28.67-.44 1l-.7 1.48v.02h1.14zm4.07-.67c0 1.9-.6 2.67-1.34 2.67-.8 0-1.3-.96-1.3-2.66 0-1.76.52-2.68 1.37-2.68.84 0 1.28 1 1.28 2.66zm-2.02 0c0 1.26.2 2.14.73 2.14.5 0 .7-.9.7-2.13s-.2-2.15-.7-2.15c-.5 0-.72.9-.72 2.14zm3.93-.27c0-.44 0-.67-.02-1h.54l.03.5h.02c.16-.32.46-.55.87-.55.36 0 .66.18.8.6h.02c.1-.2.24-.35.4-.45a.93.93 0 0 1 .52-.15c.52 0 .93.4.93 1.37v2.56h-.6v-2.42c0-.5-.07-1-.54-1-.26 0-.48.23-.57.58a2.37 2.37 0 0 0-.03.36v2.48h-.6v-2.53c0-.43-.1-.88-.55-.88-.24 0-.5.22-.57.62a2.2 2.2 0 0 0-.03.33v2.45h-.6V173zm4.87 2.24c.14.1.38.2.62.2.35 0 .56-.2.56-.56 0-.3-.1-.5-.5-.76-.5-.32-.77-.65-.77-1.1 0-.62.45-1.07 1.05-1.07.3 0 .54.1.7.2l-.17.46a.9.9 0 0 0-.5-.16.47.47 0 0 0-.5.5c0 .26.08.4.46.66.45.3.8.64.8 1.18 0 .77-.52 1.15-1.16 1.15-.28 0-.6-.1-.76-.22l.15-.46zm149.5-23.93h-.03l-.86.5-.12-.47 1.1-.64h.5v5.18h-.6v-4.57zm3.07 0h-.02l-.86.5-.12-.47 1.1-.64h.5v5.18h-.6v-4.57zm1.83 4.58v-.4l.44-.6c.62-.85 1.36-1.83 1.36-2.8 0-.58-.25-.93-.74-.93-.38 0-.62.2-.75.3l-.16-.48a1.63 1.63 0 0 1 1.03-.35c.86 0 1.24.64 1.24 1.43 0 .97-.64 1.9-1.28 2.8l-.36.47v.02h1.73v.54h-2.5zm4.5-2.87c0-.44 0-.67-.02-1h.54l.02.5c.18-.32.48-.55.88-.55.36 0 .67.18.8.6h.03c.1-.2.24-.35.38-.45a.93.93 0 0 1 .55-.15c.52 0 .93.4.93 1.37v2.56h-.6v-2.42c0-.5-.08-1-.56-1-.25 0-.47.23-.56.58a2.24 2.24 0 0 0-.03.36v2.48h-.6v-2.53c0-.43-.08-.88-.54-.88-.26 0-.5.22-.58.62a2.2 2.2 0 0 0-.03.33v2.45h-.6V153zm4.87 2.24c.13.1.37.2.62.2.35 0 .57-.2.57-.56 0-.3-.1-.5-.5-.76-.5-.32-.77-.65-.77-1.1a1.04 1.04 0 0 1 1.06-1.07c.3 0 .54.1.7.2l-.17.46a.9.9 0 0 0-.5-.16.47.47 0 0 0-.52.5c0 .26.1.4.48.66.46.3.8.64.8 1.18 0 .77-.52 1.15-1.15 1.15-.3 0-.6-.1-.77-.22l.16-.46zm-240.28 1c-.2.12-.54.2-.96.2-1.32 0-2.26-1.07-2.26-3.36 0-2.65 1.32-3.5 2.38-3.5.4 0 .7.08.84.17l-.17.65c-.17-.07-.34-.14-.7-.14-.7 0-1.55.7-1.55 2.75 0 2.07.76 2.75 1.58 2.75.3 0 .55-.07.7-.15l.13.65zm.7-6.78h.77v2.6h.02c.1-.17.25-.32.4-.42.18-.1.37-.18.65-.18.6 0 1.13.5 1.13 1.7v3.2h-.77v-3.1c0-.6-.13-1.15-.65-1.15-.35 0-.62.27-.74.78-.02.1-.03.25-.03.37v3.12h-.77v-6.9zm5.96 6.9l-.05-.5h-.03c-.2.37-.55.6-.96.6-.65 0-1.15-.56-1.15-1.4 0-1.2.97-1.73 2.06-1.75v-.13c0-.65-.17-1.1-.78-1.1-.3 0-.57.1-.8.25l-.17-.54c.2-.15.65-.32 1.13-.32.97 0 1.4.64 1.4 1.73v2.07c0 .37 0 .8.04 1.1h-.7zm-.1-2.5c-.4 0-1.34.08-1.34 1.13 0 .62.32.85.6.85.33 0 .62-.25.7-.73.03-.1.03-.2.03-.27v-.98zm1.83-1.07c0-.58-.03-.87-.04-1.26h.68l.04.58h.02c.2-.4.6-.66 1.1-.66.68 0 1.18.5 1.18 1.67v3.24h-.77v-3.1c0-.58-.1-1.16-.67-1.16-.32 0-.63.28-.73.8-.02.12-.03.27-.03.43v3.04h-.77v-3.58zm7-1.26c0 .34-.03.77-.03 1.5v2.7c0 1.28-.16 1.76-.48 2.1-.3.34-.75.53-1.3.53-.4 0-.8-.1-1.05-.24l.17-.6c.2.1.5.2.9.2.6 0 1-.37 1-1.47v-.48h-.03c-.17.38-.52.6-.93.6-.85 0-1.4-.98-1.4-2.4 0-1.78.8-2.52 1.5-2.52.53 0 .77.34.9.63h.03l.04-.56h.7zm-.8 1.67c0-.1 0-.24-.03-.35-.1-.32-.26-.73-.7-.73-.56 0-.86.75-.86 1.8 0 1.25.4 1.8.86 1.8.23 0 .53-.1.7-.68.03-.15.04-.3.04-.43v-1.4zm2.38.82c0 1.48.6 1.8 1.15 1.8.33 0 .6-.08.8-.2l.12.58c-.27.15-.68.23-1.06.23-1.16 0-1.76-.95-1.76-2.43 0-1.56.66-2.54 1.63-2.54 1 0 1.4 1.03 1.4 2.13 0 .17 0 .3-.02.42h-2.25zm1.52-.56c.02-.97-.35-1.4-.72-1.4-.5 0-.76.74-.8 1.4h1.52zm4.57 2.8c-.2.1-.54.17-.96.17-1.32 0-2.26-1.06-2.26-3.35 0-2.65 1.32-3.5 2.38-3.5.4 0 .7.08.84.17l-.17.65c-.16-.07-.33-.14-.68-.14-.72 0-1.56.7-1.56 2.75 0 2.07.77 2.75 1.6 2.75.28 0 .54-.07.7-.15l.12.65zm1.52-5.97c0 .3-.18.5-.47.5-.25 0-.44-.2-.44-.5s.2-.5.45-.5c.28 0 .46.2.46.5zm-.83 6.07v-4.83h.78v4.83h-.77zm1.84-3.33c0-.73-.03-1.16-.04-1.5h.7l.03.6h.02c.26-.5.64-.68 1.02-.68.84 0 1.4.9 1.4 2.48 0 1.8-.74 2.5-1.5 2.5-.45 0-.7-.28-.84-.55h-.02v2.4h-.76v-5.26zm.77 1.55c0 .14 0 .28.04.4.15.68.5.8.7.8.65 0 .85-.87.85-1.85 0-1-.25-1.84-.86-1.84-.35 0-.66.45-.7.9-.03.1-.03.23-.03.36v1.23zm3.24-5.14h.77v2.6h.03c.1-.17.25-.32.4-.42.18-.1.37-.18.65-.18.6 0 1.13.5 1.13 1.7v3.2h-.76v-3.1c0-.6-.13-1.15-.65-1.15-.37 0-.64.27-.76.78-.02.1-.03.25-.03.37v3.12h-.76v-6.9zm4.6 4.56c0 1.48.58 1.8 1.14 1.8.33 0 .6-.08.8-.2l.12.58c-.27.15-.68.23-1.06.23-1.16 0-1.76-.95-1.76-2.43 0-1.56.66-2.54 1.63-2.54 1 0 1.4 1.03 1.4 2.13 0 .17 0 .3-.02.42h-2.25zm1.5-.56c.03-.97-.34-1.4-.7-1.4-.5 0-.77.74-.8 1.4h1.5zm1.57-.67c0-.42-.02-.9-.03-1.26h.7l.03.76h.02c.16-.46.57-.84 1.02-.84.06 0 .1 0 .16 0v.8c-.05 0-.1 0-.16 0-.5 0-.85.44-.93 1 0 .13-.02.27-.02.43v2.67h-.77v-3.58zm2.4 2.68c.24.15.64.27.98.27.7 0 1.12-.46 1.12-1.14 0-.6-.36-1-.9-1.38-.52-.37-1.26-1-1.26-1.87 0-1.02.7-1.77 1.78-1.77.42 0 .8.13.95.25l-.2.66a1.4 1.4 0 0 0-.8-.24c-.65 0-.96.5-.96.96 0 .67.36.93 1 1.4.8.56 1.17 1.18 1.17 1.92 0 1.16-.82 1.9-1.9 1.9-.45 0-.94-.16-1.13-.3l.17-.66zm3.73-2.44c0-.73-.03-1.16-.04-1.5h.68l.04.6h.02c.26-.5.64-.68 1.02-.68.84 0 1.4.9 1.4 2.48 0 1.8-.74 2.5-1.5 2.5-.45 0-.7-.28-.84-.55h-.02v2.4h-.77v-5.26zm.77 1.55c0 .14 0 .28.03.4.15.68.5.8.7.8.65 0 .85-.87.85-1.85 0-1-.24-1.84-.85-1.84-.35 0-.66.45-.7.9-.03.1-.03.23-.03.36v1.23zm3.77-.58c0 1.48.6 1.8 1.15 1.8.33 0 .6-.08.8-.2l.12.58c-.27.15-.68.23-1.06.23-1.16 0-1.76-.95-1.76-2.43 0-1.56.66-2.54 1.63-2.54 1 0 1.38 1.03 1.38 2.13 0 .17 0 .3 0 .42h-2.26zm1.52-.56c0-.97-.36-1.4-.73-1.4-.5 0-.76.74-.8 1.4h1.52zm3.92 2.8c-.17.1-.46.17-.8.17-1.06 0-1.77-.85-1.77-2.45 0-1.4.7-2.5 1.9-2.5.27 0 .55.06.7.13l-.16.64c-.1-.05-.3-.13-.56-.13-.77 0-1.12.93-1.12 1.88 0 1.13.43 1.8 1.14 1.8.2 0 .38-.04.56-.12l.1.6zm-40.6 3.38h2.57v.67h-1.8v2.36h1.67v.65H26.9v3.07h-.78v-6.73zm4.1.65c.02.3-.17.5-.46.5-.25 0-.44-.2-.44-.5s.2-.5.45-.5c.28 0 .46.2.46.5zm-.82 6.07v-4.83h.77v4.83h-.77zm1.84-3.58c0-.58-.03-.87-.04-1.26h.67l.04.58h.03c.2-.4.6-.66 1.1-.66.67 0 1.17.5 1.17 1.67v3.24h-.77v-3.1c0-.58-.1-1.16-.66-1.16-.32 0-.63.28-.73.8-.02.12-.03.27-.03.43v3.04h-.76v-3.58zm4.88-2.5c0 .3-.18.5-.47.5-.25 0-.44-.2-.44-.5s.2-.5.46-.5c.28 0 .46.2.46.5zm-.83 6.07v-4.83h.76v4.83h-.77zm1.7-.8c.17.1.47.25.78.25.44 0 .7-.27.7-.7 0-.37-.12-.62-.6-.95-.64-.4-.98-.8-.98-1.37 0-.78.58-1.34 1.33-1.34.38 0 .66.13.87.25l-.2.6c-.2-.13-.4-.22-.65-.22-.42 0-.63.3-.63.6 0 .33.12.5.6.84.56.36 1 .8 1 1.47 0 .96-.66 1.43-1.45 1.43-.36 0-.75-.1-.96-.28l.2-.58zm3.02-6.1h.77v2.6c.1-.18.26-.33.4-.43.2-.1.38-.18.66-.18.6 0 1.13.5 1.13 1.7v3.2h-.78v-3.1c0-.6-.13-1.15-.65-1.15-.36 0-.63.27-.75.78-.02.1-.03.25-.03.37v3.12H40v-6.9zm4.6 4.55c0 1.48.57 1.8 1.13 1.8.33 0 .6-.08.8-.2l.12.58c-.27.15-.68.23-1.06.23-1.15 0-1.75-.95-1.75-2.43 0-1.56.66-2.54 1.63-2.54 1 0 1.38 1.03 1.38 2.13 0 .17 0 .3 0 .42H44.6zm1.5-.56c.03-.97-.34-1.4-.7-1.4-.5 0-.77.74-.8 1.4h1.5zm4.48-4v5.75c0 .34.03.9.04 1.17h-.66l-.05-.6h-.03c-.16.34-.5.68-1 .68-.82 0-1.4-.9-1.4-2.48 0-1.72.7-2.5 1.44-2.5.35 0 .7.16.88.56h.02v-2.57h.76zm-.76 3.92c0-.1 0-.2 0-.32-.06-.5-.36-.94-.73-.94-.63 0-.84.9-.84 1.86 0 1.02.26 1.83.8 1.83.25 0 .58-.12.75-.82.03-.1.04-.2.04-.3v-1.3zm189.52 27.93h-.02l-.86.5-.12-.47 1.1-.64h.5v5.18h-.6v-4.57zm4.12-.16a2.63 2.63 0 0 0-.36.06c-.87.2-1.2 1.07-1.34 1.87h.02c.2-.3.5-.5.88-.5.67 0 1.12.6 1.12 1.6s-.44 1.78-1.28 1.78c-.9 0-1.35-.92-1.35-2.1 0-1.02.26-1.8.67-2.35a2.14 2.14 0 0 1 1.25-.83c.16-.03.3-.04.4-.05v.52zm-.3 3.08c0-.78-.26-1.17-.7-1.17-.24 0-.5.17-.66.56a.85.85 0 0 0-.05.32c0 1.06.34 1.55.75 1.55.36 0 .67-.35.67-1.25zm1.06.4c0-.74.43-1.2.85-1.5h-.02c-.43-.3-.68-.76-.68-1.2 0-.8.57-1.3 1.22-1.3.74 0 1.1.63 1.1 1.23 0 .45-.2.9-.68 1.22v.02c.47.3.83.8.83 1.4 0 .82-.54 1.45-1.34 1.45-.86 0-1.3-.7-1.3-1.34zm2.02-.07c0-.6-.34-.94-.74-1.2a1.4 1.4 0 0 0-.67 1.16c0 .6.26 1 .7 1 .4 0 .7-.3.7-.95zm-1.26-2.67c0 .53.32.8.64 1 .3-.23.52-.57.52-.96 0-.5-.2-.84-.6-.84-.33 0-.56.33-.56.8zm3.78 1.13c0-.44-.02-.67-.03-1h.54l.02.5c.18-.32.48-.55.88-.55.36 0 .67.18.8.6h.03c.1-.2.24-.35.38-.45a.93.93 0 0 1 .55-.15c.52 0 .93.4.93 1.37v2.56h-.6v-2.42c0-.5-.08-1-.56-1-.25 0-.47.23-.56.6a2.24 2.24 0 0 0-.03.34v2.48h-.6v-2.53c0-.43-.08-.88-.54-.88-.26 0-.5.22-.58.62a2.2 2.2 0 0 0-.03.33v2.45h-.6V193zm4.86 2.24c.13.1.37.2.62.2.35 0 .57-.2.57-.56 0-.3-.1-.5-.5-.76-.5-.32-.77-.65-.77-1.1a1.04 1.04 0 0 1 1.06-1.07c.3 0 .54.1.7.2l-.17.46a.9.9 0 0 0-.5-.16.47.47 0 0 0-.52.5c0 .26.1.4.48.66.46.3.8.64.8 1.18 0 .77-.52 1.15-1.15 1.15-.3 0-.6-.1-.77-.22l.16-.46zm14-20.9l-.46 2.03h-.74l1.54-6.73h.85l1.5 6.73h-.76l-.45-2.02h-1.5zm1.38-.6l-.35-1.7c-.1-.5-.2-1.05-.27-1.55h-.04c-.08.5-.18 1.08-.27 1.53l-.36 1.7h1.28zm2.05-.7c0-.73-.03-1.16-.04-1.5h.7l.03.6h.02c.26-.5.64-.68 1.02-.68.84 0 1.4.9 1.4 2.48 0 1.8-.74 2.5-1.5 2.5-.45 0-.7-.28-.84-.55h-.02v2.4h-.77v-5.26zm.77 1.55c0 .14 0 .28.03.4.15.68.5.8.7.8.65 0 .85-.87.85-1.85 0-1-.24-1.84-.85-1.84-.35 0-.66.45-.7.9-.03.1-.03.23-.03.36v1.23zm3.22-1.56c0-.73-.03-1.16-.04-1.5h.7l.03.6h.02c.26-.5.64-.68 1.02-.68.83 0 1.4.9 1.4 2.48 0 1.8-.75 2.5-1.5 2.5-.46 0-.72-.28-.85-.55h-.02v2.4h-.77v-5.26zm.77 1.55c0 .14 0 .28.03.4.15.68.5.8.7.8.65 0 .85-.87.85-1.85 0-1-.23-1.84-.84-1.84-.35 0-.66.45-.7.9-.03.1-.03.23-.03.36v1.23zm3.23-5.14h.77v6.9h-.77v-6.9zm2.74.83c0 .3-.18.5-.47.5-.25 0-.44-.2-.44-.5s.2-.5.44-.5c.28 0 .46.2.46.5zm-.83 6.07v-4.83h.77v4.83h-.77zm4.2-.12c-.17.1-.46.18-.8.18-1.06 0-1.77-.85-1.77-2.45 0-1.4.7-2.5 1.9-2.5.27 0 .54.06.7.13l-.16.64c-.1-.05-.3-.13-.55-.13-.78 0-1.13.93-1.13 1.88 0 1.13.43 1.8 1.14 1.8.22 0 .4-.04.57-.12l.1.6zm2.6.12l-.05-.5h-.03c-.22.36-.56.58-.97.58-.65 0-1.15-.55-1.15-1.38 0-1.2.97-1.74 2.06-1.76v-.13c0-.65-.16-1.1-.77-1.1-.3 0-.57.1-.8.25l-.17-.54c.2-.15.65-.32 1.13-.32.97 0 1.4.64 1.4 1.73v2.07c0 .37 0 .8.04 1.1h-.7zm-.1-2.5c-.4 0-1.34.07-1.34 1.12 0 .62.32.85.6.85.33 0 .62-.25.7-.73.03-.1.03-.2.03-.27v-.98zm2.68-3.6v1.27h.93v.58h-.93V175c0 .62.23.8.5.8.13 0 .23-.02.32-.04l.03.6c-.14.04-.32.07-.57.07-.3 0-.57-.08-.76-.3-.2-.2-.3-.54-.3-1.2v-2.8H289v-.6h.58v-1.05l.77-.22zm2.44.02c0 .3-.2.5-.48.5-.25 0-.44-.2-.44-.5s.2-.5.45-.5c.28 0 .46.2.46.5zm-.84 6.07v-4.83h.77v4.83h-.77zm4.8-2.42c0 1.87-.86 2.5-1.6 2.5-.87 0-1.57-.8-1.57-2.48 0-1.77.78-2.5 1.6-2.5.86 0 1.57.8 1.57 2.48zm-2.4 0c0 .8.14 1.9.84 1.9.66 0 .78-1.15.78-1.9 0-.73-.12-1.87-.8-1.87-.7 0-.82 1.13-.82 1.87zm3.27-1.16c0-.58-.03-.87-.04-1.26h.66l.04.58h.02c.2-.4.6-.66 1.1-.66.68 0 1.18.5 1.18 1.67v3.24h-.78v-3.1c0-.58-.1-1.16-.66-1.16-.32 0-.63.28-.73.8-.02.12-.03.27-.03.43v3.04h-.77v-3.58zm5.68-3.06c.3-.1.66-.13 1.05-.13.7 0 1.2.2 1.57.52.52.45.9 1.32.9 2.73 0 1.53-.37 2.37-.8 2.83-.44.5-1.07.73-1.85.73-.3 0-.63 0-.86-.06v-6.6zm.78 6c.1.02.22.02.3.02.84 0 1.65-.6 1.65-2.9 0-1.7-.52-2.62-1.6-2.62-.12 0-.25 0-.35.04v5.46zm5.52.63l-.05-.5h-.03c-.2.36-.55.58-.96.58-.64 0-1.14-.55-1.14-1.38 0-1.2.97-1.74 2.06-1.76v-.13c0-.65-.16-1.1-.77-1.1-.3 0-.56.1-.8.25l-.16-.54c.2-.15.64-.32 1.13-.32.96 0 1.38.64 1.38 1.73v2.07c0 .37 0 .8.06 1.1h-.7zm-.1-2.5c-.4 0-1.33.07-1.33 1.12 0 .62.3.85.6.85.33 0 .62-.25.7-.73.03-.1.03-.2.03-.27v-.98zm2.7-3.6v1.27h.92v.58h-.93V175c0 .62.22.8.5.8.12 0 .22-.02.3-.04l.04.6c-.14.04-.32.07-.57.07-.3 0-.57-.08-.76-.3-.18-.2-.28-.54-.28-1.2v-2.8h-.6v-.6h.6v-1.05l.77-.22zm3.5 6.1l-.05-.5h-.02c-.22.36-.56.58-.96.58-.65 0-1.15-.55-1.15-1.38 0-1.2.97-1.74 2.06-1.76v-.13c0-.65-.16-1.1-.77-1.1-.3 0-.56.1-.8.25l-.16-.54c.2-.15.65-.32 1.13-.32.97 0 1.38.64 1.38 1.73v2.07c0 .37 0 .8.06 1.1h-.7zm-.1-2.5c-.4 0-1.33.07-1.33 1.12 0 .62.32.85.6.85.33 0 .62-.25.7-.73.03-.1.03-.2.03-.27v-.98z"/><path fill="none" stroke="#0071bc" d="M329.94 75.17c7.57 2.6-2.73 16.23 4.4 18.27-7.12 2.03 3.17 15.65-4.4 18.27" stroke-linejoin="round"/><path d="M341.34 118.92v-1.1h.62v2.9h-.62v-1.1h-5.45v-.7h5.44zm.62 2.48v.7h-5.48v1.7h-.6v-2.4h6.08zm-5.27 2.96a1.77 1.77 0 0 0-.25.87c0 .63.4 1 1.02 1 .56 0 .9-.32 1.26-.8.34-.47.9-1.14 1.7-1.14.9 0 1.58.63 1.58 1.6 0 .37-.1.7-.2.85l-.6-.17c.1-.15.2-.4.2-.72 0-.6-.45-.87-.86-.87-.6 0-.84.3-1.26.88-.5.73-1.07 1.05-1.74 1.05-1.05 0-1.7-.74-1.7-1.7 0-.42.13-.86.26-1.03l.6.16zm1.8 6.5h-.53v-1.98h.54v1.97zm2.63 6.1v-1.6l-1.56-.23a.8.8 0 0 1 .02.22c0 .3-.14.8-.45 1.1-.3.32-.74.5-1.33.5-1.16 0-2-.73-2-1.77 0-.36.1-.76.25-1l.56.16c-.1.18-.23.5-.23.82 0 .6.46 1.1 1.35 1.1.93 0 1.3-.56 1.3-1.32 0-.22 0-.35-.02-.46l2.7.37v2.1h-.6zm.1 3.33a3.33 3.33 0 0 0-.06-.43c-.24-.97-1.2-1.36-2.1-1.5v.03c.32.22.55.55.55 1 0 .73-.68 1.25-1.8 1.25-1.1 0-2-.5-2-1.44 0-1 1.04-1.52 2.38-1.52 1.13 0 2 .3 2.64.75.5.35.8.9.92 1.42.04.2.05.34.06.44h-.6zm-3.47-.35c.9 0 1.33-.3 1.33-.78 0-.3-.2-.58-.64-.75a.93.93 0 0 0-.35-.06c-1.2 0-1.74.38-1.74.85 0 .4.4.75 1.4.75zm1.36 2.83c.52 0 .78-.03 1.13-.04v.6l-.54.04v.02c.36.2.62.52.62.98 0 .4-.2.75-.67.9v.03c.22.13.4.28.5.44.12.17.17.38.17.6 0 .6-.43 1.05-1.54 1.05h-2.9v-.7h2.74c.57 0 1.1-.08 1.1-.6 0-.3-.23-.55-.63-.65a2.65 2.65 0 0 0-.4-.03h-2.8v-.68h2.85c.48 0 1-.1 1-.6 0-.28-.26-.57-.72-.65a2.5 2.5 0 0 0-.37-.04h-2.77v-.68h3.22zm-2.5 5.46a1.38 1.38 0 0 0-.23.7c0 .4.23.64.62.64.33 0 .55-.1.85-.55.37-.57.74-.88 1.24-.88.7 0 1.22.52 1.22 1.2 0 .34-.12.6-.23.78l-.53-.2c.1-.15.2-.34.2-.56a.53.53 0 0 0-.56-.57c-.3 0-.45.1-.75.54-.32.5-.72.9-1.32.9-.87 0-1.3-.6-1.3-1.3 0-.33.1-.68.26-.87l.5.17z"/><path fill="none" stroke="#009245" d="M329.94 115.17c7.57 2.7-2.73 16.8 4.4 18.9-7.12 2.1 3.17 16.2-4.4 18.9" stroke-linejoin="round"/><path fill="#b2d4eb" fill-rule="evenodd" d="M73.3 118.74c0 1.98-1.63 3.6-3.6 3.6H6.97a3.6 3.6 0 0 1-3.6-3.6v-9.85c0-2 1.62-3.62 3.6-3.62h62.7c2 0 3.6 1.63 3.6 3.6v9.86z" clip-rule="evenodd"/><path fill="none" stroke="#000" d="M73.3 118.74c0 1.98-1.63 3.6-3.6 3.6H6.97a3.6 3.6 0 0 1-3.6-3.6v-9.85c0-2 1.62-3.62 3.6-3.62h62.7c2 0 3.6 1.63 3.6 3.6v9.86z" stroke-linecap="round" stroke-linejoin="round"/><path d="M33.78 114.73l-.45 2.02h-.74l1.53-6.74h.85l1.5 6.75h-.76l-.45-2.02h-1.5zm1.4-.62l-.36-1.7c-.1-.48-.2-1.04-.27-1.54h-.04c-.07.5-.17 1.1-.26 1.54l-.35 1.7h1.27zm4.88 2.53c-.2.1-.54.18-.96.18-1.32 0-2.26-1.05-2.26-3.34 0-2.66 1.32-3.5 2.38-3.5.4 0 .7.07.84.16l-.17.65c-.17-.07-.34-.14-.7-.14-.7 0-1.55.7-1.55 2.76 0 2.05.76 2.73 1.58 2.73.3 0 .55-.07.7-.15l.13.65zm.8-6.62h.76v3.2h.02c.15-.27.3-.54.42-.8l1.26-2.4h.85l-1.65 2.9 1.7 3.85h-.84L42 113.5l-.38.65v2.6h-.77V110z"/><path fill="#fddfbb" fill-rule="evenodd" d="M73.3 136.12c0 1.98-1.63 3.6-3.6 3.6H6.97a3.6 3.6 0 0 1-3.6-3.6v-9.86c0-1.98 1.62-3.6 3.6-3.6h62.7c2 0 3.6 1.62 3.6 3.6v9.86z" clip-rule="evenodd"/><path fill="none" stroke="#000" d="M73.3 136.12c0 1.98-1.63 3.6-3.6 3.6H6.97a3.6 3.6 0 0 1-3.6-3.6v-9.86c0-1.98 1.62-3.6 3.6-3.6h62.7c2 0 3.6 1.62 3.6 3.6v9.86z" stroke-linecap="round" stroke-linejoin="round"/><path d="M25.73 134.1c-.2.1-.54.18-.96.18-1.32 0-2.26-1.06-2.26-3.35 0-2.66 1.33-3.5 2.4-3.5.4 0 .7.07.83.16l-.17.64c-.16-.07-.33-.14-.68-.14-.72 0-1.56.7-1.56 2.76 0 2.06.76 2.74 1.58 2.74.3 0 .55-.07.7-.15l.13.65zm.7-6.8h.77v6.92h-.77v-6.92zm2.74.83c0 .3-.18.5-.47.5-.25 0-.44-.2-.44-.5s.2-.5.45-.5c.3 0 .47.2.47.5zm-.83 6.1v-4.85h.77v4.84h-.76zm2.38-2.36c0 1.48.6 1.8 1.15 1.8.33 0 .6-.08.8-.2l.12.58c-.28.15-.7.22-1.07.22-1.16 0-1.76-.94-1.76-2.42 0-1.57.66-2.55 1.63-2.55 1 0 1.38 1.04 1.38 2.14 0 .18 0 .3 0 .43H30.7zm1.52-.57c.02-.97-.35-1.4-.72-1.4-.5 0-.76.74-.8 1.4h1.52zm1.57-.67c0-.57-.02-.86-.03-1.25h.67l.04.58h.02c.2-.4.6-.66 1.1-.66.68 0 1.18.5 1.18 1.67v3.25H36v-3.12c0-.57-.1-1.15-.66-1.15-.32 0-.63.27-.73.8 0 .1-.02.26-.02.42v3.05h-.77v-3.6zm4.94-2.53v1.28h.93v.6h-.93v2.86c0 .63.23.8.5.8.13 0 .23 0 .32-.03l.03.6c-.15.05-.33.08-.58.08-.3 0-.57-.08-.76-.3-.2-.2-.3-.54-.3-1.2v-2.8h-.58v-.6h.6v-1.06l.76-.22zm2.44-.62v2.9h1.9v-2.9h.76v6.74h-.77v-3.15h-1.9v3.15h-.76v-6.74h.78zm4.3 4.4c0 1.47.6 1.8 1.15 1.8.33 0 .6-.1.8-.2l.12.57c-.27.15-.68.23-1.06.23-1.17 0-1.77-.95-1.77-2.43 0-1.57.66-2.55 1.63-2.55 1 0 1.38 1.04 1.38 2.14 0 .18 0 .3 0 .43h-2.26zm1.52-.58c.02-.97-.35-1.4-.72-1.4-.5 0-.76.74-.8 1.4H47zm1.57-4h.77v6.92h-.77v-6.92zm1.9 0h.78v6.92h-.77v-6.92zm4.9 4.5c0 1.87-.88 2.5-1.62 2.5-.87 0-1.57-.8-1.57-2.5 0-1.76.8-2.5 1.62-2.5.86 0 1.56.8 1.56 2.5zm-2.42 0c0 .8.14 1.9.84 1.9.65 0 .78-1.15.78-1.9 0-.74-.13-1.88-.8-1.88-.7 0-.83 1.14-.83 1.88z"/><path fill="#ccc" fill-rule="evenodd" d="M73.28 182.3c0 1.98-1.62 3.6-3.6 3.6H6.98a3.6 3.6 0 0 1-3.6-3.6v-9.86c0-1.98 1.62-3.6 3.6-3.6h62.7c1.98 0 3.6 1.62 3.6 3.6v9.86z" clip-rule="evenodd"/><path fill="none" stroke="#000" d="M73.28 182.3c0 1.98-1.62 3.6-3.6 3.6H6.98a3.6 3.6 0 0 1-3.6-3.6v-9.86c0-1.98 1.62-3.6 3.6-3.6h62.7c1.98 0 3.6 1.62 3.6 3.6v9.86z" stroke-linecap="round" stroke-linejoin="round"/><path d="M14.4 178.3l-.45 2h-.74l1.55-6.73h.85l1.5 6.74h-.76l-.45-2h-1.5zm1.4-.63l-.36-1.7c-.1-.5-.2-1.05-.27-1.55h-.04c-.08.5-.18 1.1-.27 1.54l-.35 1.7h1.3zm2.04-.7c0-.73-.03-1.16-.04-1.5h.7l.03.62h.02c.26-.53.64-.7 1.02-.7.84 0 1.4.9 1.4 2.48 0 1.8-.74 2.5-1.5 2.5-.45 0-.7-.28-.84-.55h-.02v2.4h-.76v-5.25zm.77 1.56c0 .15 0 .3.04.4.15.7.5.82.7.82.65 0 .85-.88.85-1.86 0-1-.25-1.85-.86-1.85-.35 0-.66.44-.7.88-.03.12-.03.24-.03.37v1.23zm3.23-1.55c0-.74-.03-1.17-.04-1.5h.68l.04.6h.02c.26-.5.64-.7 1.02-.7.84 0 1.4.9 1.4 2.5 0 1.8-.74 2.5-1.5 2.5-.45 0-.7-.28-.84-.55h-.02v2.4h-.77v-5.25zm.77 1.55c0 .15 0 .3.03.4.15.7.5.82.7.82.65 0 .85-.88.85-1.86 0-1-.24-1.85-.85-1.85-.35 0-.66.44-.7.88-.03.12-.03.24-.03.37v1.23zm3.23-5.14h.77v6.9h-.77v-6.9zm2.74.82c0 .3-.18.5-.47.5-.25 0-.44-.2-.44-.5s.2-.5.45-.5c.3 0 .47.2.47.5zm-.83 6.1v-4.85h.77v4.84h-.76zm4.2-.13c-.17.1-.46.17-.8.17-1.06 0-1.77-.85-1.77-2.45 0-1.4.7-2.52 1.9-2.52.27 0 .55.07.7.15l-.16.63c-.1-.05-.3-.13-.54-.13-.77 0-1.12.92-1.12 1.87 0 1.13.43 1.8 1.14 1.8.2 0 .38-.04.56-.12l.1.6zm2.6.1l-.05-.5h-.04c-.2.37-.55.6-.96.6-.65 0-1.15-.56-1.15-1.4 0-1.2.97-1.74 2.06-1.75v-.15c0-.65-.15-1.1-.76-1.1-.3 0-.57.1-.8.25l-.17-.54c.2-.14.65-.3 1.13-.3.97 0 1.4.63 1.4 1.72v2.1c0 .36 0 .78.04 1.1h-.7zm-.1-2.5c-.4 0-1.34.08-1.34 1.13 0 .63.32.86.6.86.33 0 .62-.26.7-.74.03-.1.03-.2.03-.27v-1zm2.68-3.6v1.27h.93v.6h-.93v2.86c0 .63.23.8.5.8.13 0 .23 0 .32-.03l.03.6c-.14.04-.32.07-.57.07-.3 0-.57-.08-.76-.3-.2-.2-.3-.54-.3-1.2v-2.8h-.57v-.6h.58v-1.06l.77-.2zm2.44.02c0 .3-.18.5-.47.5-.26 0-.45-.2-.45-.5s.2-.5.45-.5c.28 0 .46.2.46.5zm-.83 6.1v-4.85h.77v4.84h-.77zm4.8-2.43c0 1.86-.86 2.5-1.6 2.5-.87 0-1.57-.8-1.57-2.5 0-1.77.8-2.5 1.62-2.5.86 0 1.56.8 1.56 2.5zm-2.4 0c0 .8.14 1.88.84 1.88.66 0 .8-1.14.8-1.9 0-.73-.14-1.87-.82-1.87-.7 0-.82 1.15-.82 1.9zm3.27-1.18c0-.57-.03-.86-.04-1.25h.67l.04.58h.02c.2-.4.6-.66 1.1-.66.67 0 1.17.5 1.17 1.66v3.25h-.77v-3.1c0-.58-.1-1.16-.67-1.16-.32 0-.63.27-.73.8-.02.1-.03.26-.03.42v3.05h-.77v-3.58zm5.68-3.05c.3-.1.65-.13 1.04-.13.7 0 1.2.18 1.58.5.52.46.9 1.33.9 2.74 0 1.54-.37 2.38-.8 2.84-.44.5-1.08.73-1.86.73-.3 0-.63-.02-.86-.07v-6.6zm.77 6c.1.03.22.03.3.03.84 0 1.66-.6 1.66-2.9 0-1.7-.5-2.63-1.6-2.63-.1 0-.25 0-.35.04v5.48zm5.53.64l-.05-.5h-.03c-.2.37-.55.6-.96.6-.65 0-1.15-.56-1.15-1.4 0-1.2.96-1.74 2.05-1.75v-.15c0-.65-.16-1.1-.77-1.1-.3 0-.57.1-.8.25l-.17-.54c.2-.14.66-.3 1.14-.3.97 0 1.4.63 1.4 1.72v2.1c0 .36 0 .78.04 1.1h-.7zm-.1-2.5c-.4 0-1.34.08-1.34 1.13 0 .63.32.86.6.86.33 0 .62-.26.7-.74.03-.1.03-.2.03-.27v-1zm2.68-3.6v1.27h.93v.6h-.94v2.86c0 .63.23.8.5.8.13 0 .23 0 .32-.03l.03.6c-.13.04-.3.07-.56.07-.3 0-.57-.08-.76-.3-.2-.2-.3-.54-.3-1.2v-2.8h-.58v-.6h.6v-1.06l.76-.2zm3.52 6.1l-.05-.5h-.03c-.2.37-.55.6-.96.6-.65 0-1.15-.56-1.15-1.4 0-1.2.96-1.74 2.05-1.75v-.15c0-.65-.16-1.1-.77-1.1-.3 0-.57.1-.8.25l-.17-.54c.2-.14.66-.3 1.14-.3.97 0 1.4.63 1.4 1.72v2.1c0 .36 0 .78.04 1.1h-.7zm-.1-2.5c-.4 0-1.34.08-1.34 1.13 0 .63.32.86.6.86.33 0 .62-.26.7-.74.03-.1.03-.2.03-.27v-1z"/></svg>