<?xml version="1.0" encoding="utf-8"?>
<!-- Generator: Adobe Illustrator 15.1.0, SVG Export Plug-In . SVG Version: 6.00 Build 0)  -->
<!DOCTYPE svg PUBLIC "-//W3C//DTD SVG 1.1//EN" "http://www.w3.org/Graphics/SVG/1.1/DTD/svg11.dtd">
<svg version="1.1" id="Layer_1" xmlns="http://www.w3.org/2000/svg" xmlns:xlink="http://www.w3.org/1999/xlink" x="0px" y="0px"
	 width="113px" height="87px" viewBox="-494.5 -24.5 113 87" enable-background="new -494.5 -24.5 113 87" xml:space="preserve">
<filter  x="-10%" y="-10%" width="150%" height="150%" id="inset-shadow">
	<feFlood  flood-color="black" flood-opacity="0.5" result="darkFill"></feFlood>
	<feComposite  result="darkAlpha" in2="SourceAlpha" in="darkFill" operator="in"></feComposite>
	<feGaussianBlur  result="blur" in="darkAlpha" stdDeviation="2"></feGaussianBlur>
	<feOffset  result="offsetBlur" dx="0" dy="-2"></feOffset>
	<feComposite  in2="SourceAlpha" in="offsetBlur" operator="out"></feComposite>
	<feOffset  dx="0" dy="2" result="darkRim"></feOffset>
	
	<feFlood  flood-color="white" flood-opacity="1" result="lightFill"></feFlood>
	<feComposite  result="lightAlpha" in2="SourceAlpha" in="lightFill" operator="in"></feComposite>
	<feGaussianBlur in="lightAlpha" stdDeviation="2"></feGaussianBlur>
	<feOffset  dx="0" dy="2"></feOffset>
	<feComposite in2="SourceAlpha" operator="out"></feComposite>
	<feOffset  dx="0" dy="-2" result="lightRim"></feOffset>
	
	
	<feMerge>
		<feMergeNode  in="SourceGraphic"></feMergeNode>
		<feMergeNode in="darkRim"></feMergeNode>
		<feMergeNode in="lightRim"></feMergeNode>
	</feMerge>
</filter>
<g>
	<g filter="url(#inset-shadow)">
		<path fill="#FFFFFF" d="M-389.74,16.835c-3.498,0.597-8.552-0.024-11.245-1.138c5.586-0.465,9.36-3,10.818-6.447
			c-2.015,1.241-8.263,2.592-11.712,1.302c-0.162-0.804-0.353-1.578-0.54-2.275c-2.628-9.654-11.623-17.432-21.039-16.496
			c0.751-0.309,1.536-0.593,2.312-0.855c1.032-0.372,7.117-1.365,6.163-3.51c-0.816-1.893-8.25,1.422-9.648,1.862
			c1.84-0.699,4.907-1.893,5.22-4.02c-2.831,0.39-5.61,1.73-7.747,3.681c0.768-0.837,1.357-1.856,1.487-2.952
			c-7.561,4.831-11.974,14.566-15.533,24.017c-2.807-2.722-5.303-4.867-7.53-6.055c-6.252-3.351-13.727-6.855-25.469-11.22
			c-0.357,3.888,1.926,9.057,8.491,12.49c-1.422-0.189-4.026,0.24-6.1,0.735c0.841,4.458,3.617,8.125,11.11,9.898
			c-3.427,0.228-5.2,1.014-6.802,2.691c1.558,3.094,5.376,6.743,12.224,5.994c-7.621,3.288-3.112,9.377,3.093,8.463
			c-10.576,10.936-27.248,10.123-36.825,0.991c24.998,34.088,79.338,20.166,87.422-12.68
			C-395.513,21.365-391.954,19.214-389.74,16.835z"/>
	</g>
</g>
</svg>
